<?xml version="1.0" encoding="UTF-8"?>
<svg id="Layer_1" xmlns="http://www.w3.org/2000/svg" version="1.1" xmlns:xlink="http://www.w3.org/1999/xlink" viewBox="0 0 811.2 523.2">
  <!-- Generator: Adobe Illustrator 29.8.3, SVG Export Plug-In . SVG Version: 2.1.1 Build 3)  -->
  <defs>
    <style>
      .st0 {
        fill: url(#radial-gradient);
      }
    </style>
    <radialGradient id="radial-gradient" cx="405.6" cy="255.6" fx="405.6" fy="255.6" r="310.9" gradientUnits="userSpaceOnUse">
      <stop offset="0" stop-color="#fff"/>
      <stop offset="1" stop-color="#bffaff"/>
    </radialGradient>
  </defs>
  <path class="st0" d="M685.3,212.8c-8.2-14.8-20.3-27.8-36-37.1-25.5-15.3-54.8-17.9-81.2-9.9-3.5-36.5-23.7-71-57.6-91.3-56.7-34.1-130.3-15.7-164.3,40.9-1.5,2.6-2.9,5.2-4.3,7.8-2-1.4-4-2.7-6-4-53.5-32.1-122.8-14.8-155,38.6-11,18.5-16.2,38.8-16,58.8-9.9-2.6-20.3-4.1-31-4.1-66.6,0-120.6,53.9-120.6,120.6s53.9,120.6,120.6,120.6h595.9c40.3-19.5,68.3-72.7,68.3-120.6s-49.8-116.2-112.9-120.2h0l.2-.2Z"/>
</svg>