<?xml version="1.0" encoding="UTF-8"?>
<svg id="Layer_1" xmlns="http://www.w3.org/2000/svg" version="1.1" xmlns:xlink="http://www.w3.org/1999/xlink" viewBox="0 0 687 496.7">
  <!-- Generator: Adobe Illustrator 29.8.3, SVG Export Plug-In . SVG Version: 2.1.1 Build 3)  -->
  <defs>
    <style>
      .st0 {
        fill: url(#radial-gradient);
      }
    </style>
    <radialGradient id="radial-gradient" cx="343.5" cy="248" fx="343.5" fy="248" r="261.2" gradientUnits="userSpaceOnUse">
      <stop offset="0" stop-color="#fff"/>
      <stop offset="1" stop-color="#7ffff6"/>
    </radialGradient>
  </defs>
  <path class="st0" d="M583.5,422.2c47.3,0,85.8-38.5,85.8-85.8s-24.7-70.2-58.8-81.5c-.2-40.9-32.5-74-72.9-75.8-12.8-40.6-50.8-70.2-95.6-70.2s-44.3,8-61.3,21c-19.8-33.5-56.2-56.1-97.9-56.1s-70.5,18.2-91.2,46c-14-6-29.3-9.5-45.4-9.5-62.8,0-141.8,58.8-102.1,163.8-16.2,15.6-26.5,37.6-26.5,61.9,0,47.5,38.5,85.8,85.8,85.8h480.1l-.2.2Z"/>
</svg>