<?xml version="1.0" encoding="UTF-8"?>
<svg id="Layer_1" xmlns="http://www.w3.org/2000/svg" version="1.1" xmlns:xlink="http://www.w3.org/1999/xlink" viewBox="0 0 500 500">
  <!-- Generator: Adobe Illustrator 29.8.3, SVG Export Plug-In . SVG Version: 2.1.1 Build 3)  -->
  <defs>
    <style>
      .st0 {
        fill: #e68840;
      }

      .st1 {
        fill: #141033;
      }

      .st2 {
        fill: #85293a;
      }

      .st3 {
        stroke: #db4460;
      }

      .st3, .st4, .st5, .st6, .st7, .st8 {
        fill: none;
        stroke-miterlimit: 10;
        stroke-width: .2px;
      }

      .st9 {
        fill: #44494a;
      }

      .st10 {
        fill: #d9813c;
      }

      .st11 {
        fill: #1c1e1f;
      }

      .st4 {
        stroke: #db792b;
      }

      .st12 {
        fill: #db792b;
      }

      .st13 {
        fill: #c4c1bc;
      }

      .st14 {
        fill: #fff;
      }

      .st15 {
        fill: #352787;
      }

      .st16 {
        fill: #31277d;
      }

      .st17 {
        fill: #2f3233;
      }

      .st18 {
        fill: #5a1826;
      }

      .st5 {
        stroke: #a89d93;
      }

      .st19 {
        fill: #e2ddda;
      }

      .st20 {
        fill: #dbccbe;
      }

      .st21 {
        fill: #c57135;
      }

      .st6 {
        stroke: #31277d;
      }

      .st22 {
        fill: #47241e;
      }

      .st7 {
        stroke: #c9bbaf;
      }

      .st23 {
        fill: #4d1420;
      }

      .st24 {
        fill: #1b1545;
      }

      .st25 {
        fill: #ebdbcc;
      }

      .st26 {
        fill: #ac354b;
      }

      .st27 {
        fill: #ff3;
      }

      .st8 {
        stroke: #352787;
      }

      .st28 {
        fill: #dbccbf;
      }

      .st29 {
        fill: url(#linear-gradient);
      }
    </style>
    <linearGradient id="linear-gradient" x1="724.1" y1="341.4" x2="650.4" y2="472.3" gradientTransform="translate(934.1 497.5) rotate(-180)" gradientUnits="userSpaceOnUse">
      <stop offset="0" stop-color="#f7559e"/>
      <stop offset=".2" stop-color="#f7559e" stop-opacity=".6"/>
      <stop offset=".6" stop-color="#f7559e" stop-opacity="0"/>
    </linearGradient>
  </defs>
  <g id="OBJECTS">
    <path class="st19" d="M424.2,439.3c0-3.8-78-6.9-174.2-6.9s-174.2,3.1-174.2,6.9,78,6.9,174.2,6.9,174.2-3.1,174.2-6.9Z"/>
    <g>
      <g>
        <path class="st13" d="M317.2,421.1l.2,5c0,2.4,1.9,4.5,4.4,4.7l8.6.9-1.1-11.1-12,.5Z"/>
        <g>
          <ellipse class="st11" cx="331.8" cy="430" rx="9" ry="9.4"/>
          <path class="st17" d="M328,430c0,2.2,1.7,4,3.8,4s3.8-1.8,3.8-4-1.7-4-3.8-4c-2.1,0-3.8,1.8-3.8,4Z"/>
        </g>
        <path class="st13" d="M184.9,416.4l-.2,5c0,2.4-1.9,4.5-4.4,4.7l-8.6.9,1.1-11.1,12,.5Z"/>
        <g>
          <ellipse class="st11" cx="170.4" cy="425.3" rx="9" ry="9.4"/>
          <path class="st17" d="M174.2,425.3c0,2.2-1.7,4-3.8,4s-3.8-1.8-3.8-4,1.7-4,3.8-4c2.1,0,3.8,1.8,3.8,4Z"/>
        </g>
        <path class="st21" d="M357.3,423.3c0,0-.1,0-.2,0l-213.6-6.2c-.7,0-1.3-.2-1.9-.4l-23.9-10.1c-2.7-1.1-4-4.2-2.8-6.9s4.2-4,6.9-2.8l23,9.7,211.4,6.1,21.9-9.7c2.7-1.2,5.8,0,7,2.7,1.2,2.7,0,5.8-2.7,7l-22.9,10.1c-.7.3-1.4.5-2.1.5Z"/>
        <path class="st9" d="M357.3,421.5c0,0-.1,0-.2,0l-213.6-6.2c-.7,0-1.3-.2-1.9-.4l-23.9-10.1c-2.7-1.1-4-4.2-2.8-6.9,1.1-2.7,4.2-4,6.9-2.8l23,9.7,211.4,6.1,21.9-9.7c2.7-1.2,5.8,0,7,2.7,1.2,2.7,0,5.8-2.7,7l-22.9,10.1c-.7.3-1.4.5-2.1.5Z"/>
      </g>
      <g>
        <g>
          <path class="st0" d="M225.7,299.1l22.9-79.5,22,25.2-38.8,63.4-78.9,19.9s30.8-18.9,72.8-28.9Z"/>
          <path class="st27" d="M171.9,318.1l1.1,4.9-28.3,9.2s9,13.9,1,17.4l-7-13.3,1.4-3.1h-3c0,0-1-1.8-1-1.8l35.7-13.2Z"/>
        </g>
        <g>
          <g>
            <path class="st0" d="M264.1,323.7c-8.4,8.5-1.8,79.5-1.8,79.5l14.5-95.9,10.5-62.5-34.3-16.9,11.1,95.8Z"/>
            <path class="st27" d="M260.4,375.2l5.9,1.9-.5,28.6s16.5-1.6,15.9,7.2h-15l-2.1-2.6-1.3,2.6h-2.1l-.7-37.6Z"/>
          </g>
          <g>
            <path class="st1" d="M250.9,223.7l13.3,100c-6,4.2-4.1,40.3-4.1,40.3l7.8,3,29.1-147.3s-10,4.1-46,4"/>
            <polygon class="st15" points="258.4 366.2 268.9 367.5 269.7 362.2 258.6 360.5 258.4 366.2"/>
            <path class="st8" d="M274,241.6l-4.5,86.5s-6.9,10.3-5.8,37.4"/>
            <path class="st8" d="M284,257.5c-6.6,9.5-14,18.5-22.1,26.7"/>
            <path class="st8" d="M277.6,280c-3.7,3-7.5,5.8-11.3,8.4"/>
          </g>
        </g>
        <g>
          <g>
            <path class="st10" d="M356.7,186c.5-1.2.9-2.7,1.6-3.9.3-.5.6-.9,1-1.3.4-.3.9-.5,1.4-.6,1.8-.5,3.6-1,5.4-1.5.3.2.3.8,0,1.1-.8.9-5.5,2.1-6.4,2.8-.4.3-2.3,2.5-3.1,3.3Z"/>
            <path class="st10" d="M356.3,187.3c.6-1.1,1.2-2.6,2-3.6.3-.4.7-.9,1.2-1.1.5-.3,1-.3,1.5-.4,1.8-.3,3.7-.6,5.5-.8.3.2.2.8,0,1.1-.9.8-5.7,1.4-6.7,2-.5.3-2.6,2.2-3.5,2.9Z"/>
            <path class="st0" d="M344.2,187.6c1.9.8,6.8,2.1,8.9,1.9,1.7-.2,3.3-1,5-1.2,1.4-.2,2.7,0,4.1.3.6.1,1.3,0,1.7-.5.5-.7-4-2.8-6.5-2.3,1.1-2.8,1.5-5,4.4-6,2.9-1.1,3.9-1.9,3.9-2.9-1.1-.7-4.5.6-6.4,1.9-1.9,1.2-1.5,1.2-3.4,2.4s-6.9,1.6-9.1,1.3c-1,1.7-2.6,3.9-2.6,5.3Z"/>
          </g>
          <polygon class="st27" points="302.2 163.1 348.7 180.9 346.6 189.1 298.4 178.5 302.2 163.1"/>
          <path class="st5" d="M309.1,180.8s6.2-4.3,12-8.6"/>
        </g>
        <g>
          <path class="st23" d="M292.7,65c-1.1-6-3.9-11.9-8.6-15.8-4.7-3.9-11.5-5.5-17.2-3.2-9.4,3.7-12.3,15.3-15.4,24.9-2.6,8.4-6.2,16.4-10.7,23.9-5,8.3-11.2,16.1-19.8,20.7-8.5,4.5-19.7,5.1-27.5-.6-.1,5.9,2.5,12,7,15.7s10.4,5.7,16.2,6.2c5.5.5,11.8-.5,15.3-4.9-2.4,3.2-3.9,7.5-7.6,9,8.4,3,19.3,2.7,27.3-1.2s14.4-10.9,17.4-19.3c3.7-10.3,2.1-21.9,5.2-32.4,2.7-9.2,9.9-18.3,18.3-23.1Z"/>
          <path class="st29" d="M292.7,65c-1.1-6-3.9-11.9-8.6-15.8-4.7-3.9-11.5-5.5-17.2-3.2-9.4,3.7-12.3,15.3-15.4,24.9-2.6,8.4-6.2,16.4-10.7,23.9-5,8.3-11.2,16.1-19.8,20.7-8.5,4.5-19.7,5.1-27.5-.6-.1,5.9,2.5,12,7,15.7s10.4,5.7,16.2,6.2c5.5.5,11.8-.5,15.3-4.9-2.4,3.2-3.9,7.5-7.6,9,8.4,3,19.3,2.7,27.3-1.2s14.4-10.9,17.4-19.3c3.7-10.3,2.1-21.9,5.2-32.4,2.7-9.2,9.9-18.3,18.3-23.1Z"/>
          <path class="st18" d="M305.5,90.5c-3.2,7.2-9.5,15.7-17.3,14.8s-14.7-7.1-16.3-14.7c-.6-2.6-.5-5.3-.3-8,.3-4.4,1.3-8.9,3.7-12.7,5.1-8.1,16-10.8,25.4-9,4.2.8,8.4,2.6,10.7,6.2.7-1.4,3.5-1.9,4.9-1.2,1.4.7,2.3,2.2,2.6,3.7.3,1.5.1,3.1,0,4.7-.3,2.6-.9,11.3-3.3,14.9-1.7,2.5-7.2,2-10.1,1.2Z"/>
          <path class="st0" d="M292.5,76.7c2.9-2.2,7.9-3.2,12.7-2.6,5.1.7,8.8,5.2,8.6,10.3-.2,5.3-.8,10.6-1.5,15.7-.3,1.9-.7,4.1-2.2,5.3-1.4,1.1-3.2,1.1-5,1-1.3,0-4.6-.8-8-2.4-.1,2.7,0,4.4,0,7.1-2.4,15.5-13.1,8.5-12.4-1.4,0-4,.9-8.8,1.3-14.2-1.9-.4-4.8-2.8-5.6-4.6-.8-1.8-.4-4.1,1.1-5.3,1.6-1.2,3.4,0,5.1,1,0,0,3-8.2,6-9.8Z"/>
          <path class="st12" d="M282.6,87.3c-.6.3-1,1.2-.7,1.9s.9,1.2,1.6,1.3c.5,0,.9,0,1.4.1.4.1.9.5.8,1,0,.3-.3.5-.3.7,0,.2.1.3.3.4.4.2,1,0,1.3-.4.3-.4.3-.9.4-1.4,0-1.2-.3-2.4-1.4-3-.8-.5-2.2-1.1-3.2-.6Z"/>
          <path class="st18" d="M311.4,67.1s4.8,4.8,0,12.2c-4.8,7.4-25,7.2-25,7.2,0,0-2.3-29.2,25-19.4Z"/>
          <path class="st18" d="M288.2,82.9c1.8,1.4,2.3,4,2,6.3s-1.7,4.8-5.4,4.8c1.2-1.6,2-3.5,2-5.4s-.9-3-2.5-4.1c.5,0,3.4-1.5,3.9-1.6Z"/>
          <path class="st22" d="M310.4,89.2c1.4-.1,1.7,2.6.3,2.8-1.4.1-1.7-2.6-.3-2.8Z"/>
          <path class="st22" d="M301.4,89.2c1.4-.1,1.7,2.6.3,2.8-1.4.1-1.7-2.6-.3-2.8Z"/>
          <path class="st18" d="M308.8,86.6c-.4,0-.6.3-.6.6,0,0,0,.2,0,.3.1.1.5.2.8.2,1.6,0,4.9.4,5.1,0,0-.9-5.2-1.1-5.3-1.1Z"/>
          <path class="st18" d="M302.2,86.5c.4,0,.5.4.4.6,0,0,0,.2-.1.3-.2.1-.5.1-.8.1-1.6,0-4.9,0-5.1-.2.2-.9,5.5-.8,5.6-.7Z"/>
          <path class="st12" d="M306.3,92.6c.4,1.6,1,3.1,1.8,4.5.1.2,0,.4,0,.6-.4.5-.9.7-1.5.9-.6.1-.8-.8-.2-.9.3,0,.6-.2.8-.4-.8-1.4-1.3-2.8-1.7-4.4-.1-.6.7-.8.9-.2Z"/>
          <path class="st14" d="M302.6,101.3c3.6,1.6,4.7.6,6.6-1,0,1.2-.7,3.5-2.1,4-1.9.7-3.6-1-4.5-3Z"/>
        </g>
        <path class="st28" d="M304.7,210s-1.3,6.8-18.7,6.7l-3.9-6.7s14.3-6.8,22.7,0Z"/>
        <path class="st0" d="M258.7,178.8s-6.5,24.7-15.8,36.7c0,0,22.9,17,54,4.1,0,0-5.8-22.5,0-39.9l-38.2-.9Z"/>
        <g>
          <path class="st10" d="M174.1,185.1c-.6-1.2-1.1-2.6-1.9-3.7-.3-.4-.7-.9-1.1-1.2-.4-.3-1-.4-1.5-.5-1.8-.3-3.7-.7-5.5-1-.3.2-.3.8,0,1.1.8.8,5.7,1.6,6.6,2.3.5.3,2.5,2.3,3.4,3.1Z"/>
          <path class="st10" d="M174.6,186.4c-.7-1.1-1.4-2.4-2.3-3.5-.4-.4-.8-.8-1.3-1-.5-.2-1-.3-1.5-.3-1.9-.1-3.7-.2-5.6-.4-.3.3-.2.8.1,1.1.9.7,5.8.9,6.9,1.4.5.2,2.8,2,3.7,2.6Z"/>
          <path class="st0" d="M186.7,185.6c-1.9,1-6.6,2.7-8.7,2.6-1.7,0-3.3-.7-5.1-.8-1.4,0-2.7.3-4,.6-.6.2-1.3,0-1.7-.4-.5-.7,3.7-3.1,6.3-2.8-1.3-2.7-2-4.8-4.9-5.6-3-.8-4.1-1.5-4.2-2.5,1-.8,4.5.2,6.5,1.3,2,1.1,1.6,1.1,3.6,2.1,2,1,7,1,9.2.5,1.1,1.6,2.9,3.6,3,5Z"/>
        </g>
        <path class="st2" d="M305.9,115s6,3.8,7.3,8.8c1,4-15,38.6,0,67,0,0-7.5,2.1-17.5,4.5,0,0-15.1-36.3,10.3-80.2Z"/>
        <path class="st2" d="M235.3,182.9s-1.4,5.9,10,11.5l5.5-10.1s-7.9-2.7-15.5-1.4Z"/>
        <g>
          <path class="st24" d="M296.9,219.7c-35.8,8-54-4.1-54-4.1-12.1,17.1-17.2,83.5-17.2,83.5-17.7.8-41.1,13.4-41.1,13.4l4,6.6,46.5-9.1,31.5-58.3s28.6-11.8,30.3-32"/>
          <polygon class="st16" points="182.7 311.4 188.2 321.5 193 319 187.8 309.1 182.7 311.4"/>
          <path class="st6" d="M239.9,221s14.4,8.4,30,8.4,26-5,26-5"/>
          <path class="st6" d="M247.2,224.5s-19.4,58.8-16.2,79.3c0,0-24.5-1.5-45.5,9.8"/>
          <path class="st6" d="M254.1,227s-6.3,22.7-14.5,21.3"/>
          <path class="st6" d="M227.5,281.6c10.5-2.7,20.2-8.3,27.6-16.2"/>
          <path class="st6" d="M234.1,290c4.9-4.4,9.7-8.8,14.4-13.5"/>
        </g>
        <g>
          <path class="st25" d="M302.6,164.6c-3.4,6.8-5.8,12.7-5.8,12.7,0,20.7,7.9,32.6,7.9,32.6,0,0-7.4-.6-30.8,5.6-15.2,4-35.5-14.6-35.5-14.6,0,0,14.2-14,21.7-36.6.2-.6.4-1.1.5-1.7,1.3-4.8,1.8-9.9,1.6-15-.6-18.2-8.9-35.5-8.9-35.5,33.4-4.4,43.1-.8,49.9,1.4,2.8.9,4.8,3.3,5.3,6.1,1.1,6.8,3.4,15.2,3.8,21.8.3,3.8,0,7.1-1.6,9.2-2.7,3.8-5.6,9.2-8,14Z"/>
          <path class="st20" d="M310.7,150.6c-2.7,3.8-5.6,9.2-8,14-5.7-2.6-16.2-2.9-42.1-2,1.3-4.8,1.8-9.9,1.6-15,11.3,2.3,23.2,3.7,31.2,3.3,9.5-.5,14.8-3.8,18.9-9.5.3,3.8,0,7.1-1.6,9.2Z"/>
          <path class="st0" d="M276.3,110.1s10.9,33.8,20,32.7c8.3-.9,10.1-14.6,6.9-29.3,0,0-8.5-4.4-26.9-3.4Z"/>
          <path class="st7" d="M272.1,191.5c16.6-10.3,24.7-14.2,24.7-14.2"/>
          <path class="st7" d="M295.1,183.4c-5.4,5.9-10.6,11.8-15.6,18"/>
          <path class="st7" d="M241.3,197.7s17.4,10.8,25.6,12.4c8.2,1.6,22.7-7.2,35.5-4.5"/>
          <path class="st4" d="M295.9,128.5s4.4,4.8,2.5,13.8"/>
        </g>
        <g>
          <polygon class="st27" points="253.3 112.1 217.1 167.5 180.8 179.6 182.9 187.6 224.1 180.1 257.8 141.6 253.3 112.1"/>
          <polyline class="st5" points="223.9 170.5 217.1 167.5 219 172.2"/>
        </g>
        <g>
          <path class="st26" d="M271.4,110.3s6.3,19.6,7.3,25.7c1.1,6.2-11.6,55.5-11.6,55.5,0,0-16.5-10.8-31.8-8.7,0,0,25.4-20.3,17.9-70.7,0,0,11.9-1.9,18.1-1.8Z"/>
          <path class="st3" d="M257.1,111.6s2.5,31.3.8,40.9c-1.7,9.5-16.5,30-16.5,30"/>
          <path class="st3" d="M263.6,110.9s2.9,32.1,1.6,40-12.2,33.5-12.2,33.5"/>
          <path class="st3" d="M261.2,188.3s10.1-28.4,10.9-40.6c.8-12.1-3.3-37.3-3.3-37.3"/>
        </g>
      </g>
    </g>
  </g>
</svg>