<?xml version="1.0" encoding="UTF-8"?>
<svg id="Layer_1" data-name="Layer 1" xmlns="http://www.w3.org/2000/svg" xmlns:xlink="http://www.w3.org/1999/xlink" viewBox="0 0 458.6 412.4">
  <defs>
    <style>
      .cls-1 {
        fill: #fff;
      }

      .cls-2 {
        fill: #fda4b2;
      }

      .cls-2, .cls-3 {
        fill-rule: evenodd;
      }

      .cls-4 {
        fill: url(#linear-gradient);
      }

      .cls-3 {
        fill: #fecdd4;
      }
    </style>
    <linearGradient id="linear-gradient" x1="8.94" y1="234.07" x2="424.99" y2="234.07" gradientUnits="userSpaceOnUse">
      <stop offset="0" stop-color="#823bdd"/>
      <stop offset="1" stop-color="#06b6d4"/>
    </linearGradient>
  </defs>
  <path class="cls-2" d="M400.82,197.78c30.01.56,55.68,32.58,47.2,62.82-5.69,20.64-26.39,31.67-47.87,36.37-32.61,7.14-105.33,44.63-105.33,44.63-2.23,0-2.57-.33-3.46-.78-3.24-1.34-5.47-4.8-5.58-8.37v-125.63c0-2.23.33-2.68.78-3.46,1.34-3.35,4.69-5.47,8.37-5.58,35.37,0,70.63-.22,106,0h-.11ZM303.9,213.35v101.8c32.24,0,48.31-30.73,96.73-38.87,18.63-3.12,35.26-20.64,29.9-39.94-3.68-13.05-16.18-22.76-29.9-23.1h-96.73v.11Z"/>
  <path class="cls-3" d="M371.74,174.52H75.84v46.64c0,81.67,66.27,147.95,147.95,147.95h0c81.67,0,147.95-66.27,147.95-147.95v-46.64h0Z"/>
  <path class="cls-2" d="M148.14,221.6c4.46-8.37,13.28-8.37,17.52-4.24,4.46,4.24,4.46,12.61,0,20.98-2.57,5.02-8.37,10.26-13.95,14.28-2.12,1.45-5.02,1.45-7.14,0-5.69-4.02-11.49-9.15-14.06-14.28-4.46-8.37-4.46-16.74,0-20.98,4.46-4.13,13.28-4.13,17.52,4.24h.11ZM75.84,220.15v1c0,4.8.22,9.48.67,14.17.45,1,.89,1.9,1.34,2.9,2.57,5.02,8.48,10.26,14.06,14.28,2.12,1.45,5.02,1.45,7.03,0,5.69-4.02,11.49-9.15,14.06-14.28,4.35-8.37,4.35-16.74,0-20.98-4.46-4.13-13.17-4.13-17.52,4.24-4.46-8.37-13.17-8.37-17.63-4.24-.89.89-1.45,1.79-2.01,2.9h0ZM370.73,238.78c.67-5.8,1.12-11.72,1.12-17.63v-2.9c-.22-.33-.56-.56-.78-.89-4.46-4.13-13.28-4.13-17.63,4.24-4.35-8.37-13.17-8.37-17.52-4.24-4.35,4.24-4.35,12.61,0,20.98,2.57,5.02,8.48,10.26,14.06,14.28,2.12,1.45,5.02,1.45,7.14,0,5.36-3.79,11.16-8.81,13.72-13.72h0l-.11-.11ZM300.77,221.6c4.35-8.37,13.28-8.37,17.52-4.24,4.46,4.24,4.46,12.61,0,20.98-2.57,5.02-8.37,10.26-14.06,14.28-2.12,1.45-4.91,1.45-7.03,0-5.69-4.02-11.49-9.15-14.06-14.28-4.46-8.37-4.46-16.74,0-20.98,4.35-4.13,13.17-4.13,17.52,4.24h.11Z"/>
  <path class="cls-2" d="M223.79,226.62c10.04-19.08,30.12-19.08,40.06-9.48,10.04,9.48,10.04,28.56,0,47.64-6.47,13.28-22.43,26.44-36.71,35.82-2.01,1.34-4.69,1.34-6.81,0-14.17-9.37-30.12-22.65-36.6-35.82-10.04-19.08-10.04-38.05,0-47.64,9.93-9.48,30.01-9.48,39.94,9.48h.11Z"/>
  <path class="cls-2" d="M362.7,272.26c-13.61-2.79-34.48-2.9-55.45,12.61-35.7,26.11-92.83,62.04-149.29,11.16-29.23-26.22-54-31.35-74.53-28.01,19.53,58.69,74.98,100.97,140.25,100.97h0c63.71,0,117.93-40.28,138.8-96.85h.22v.11Z"/>
  <path class="cls-2" d="M402.08,369.1H45.49c0,13.28,9.04,23.99,20.19,23.99h316.2c11.16,0,20.19-10.82,20.19-23.99h0Z"/>
  <g>
    <path class="cls-4" d="M421.17,159.79c-2.7-1.35-11.26-9.01-9.61-8.86s6.6-3.9,5.25-4.5-5.25-2.1-10.81-5.1c0,0,9.46-14.26,15.01-25.67,5.55-11.41,6.45-22.21-5.1-18.91-11.56,3.3-50.13,5.4-51.78,5.4s-5.4-2.85-28.67-4.65c.6-3.3.15-7.8-.9-8.56-1.35-1.05-1.5.75-5.85,6.15-.3-.9-7.65-9.16-7.5-6.15,0,2.4-1.65,5.85-4.95,8.86-19.66,2.25-37.37,9.61-41.43,13.21-5.25,4.5-34.97,4.8-54.78.75-19.81-4.05-20.86,8.1-15.91,17.56,3.6,6.75,20.86,20.86,33.92,28.97-10.66,1.2-44.43-6.15-63.04-11.41-20.11-5.55-61.67-34.67-102.49,20.71-8.71-7.05-26.27-12.91-43.53-2.1-18.16,11.41-25.45,66.24-15.76,91.86,11.45,30.27,19.66,56.15,16.96,61.71s-17.26,9.16-14.86,25.52c2.4,16.36,4.65,35.42,14.56,35.27,9.91-.15,4.95-25.37,4.65-33.77-.3-8.41,5.55-15.91,13.21-18.46s4.65-32.12.3-45.48c-4.35-13.51-19.21-43.4-14.56-66.66,4.65-23.41.75-44.88,35.12-41.58,28.67,2.25,21.59,1.05,32.7,1.8,9.31.6,116.77.9,152.64.9-.9,2.7-2.1,5.4-.75,5.55,1.65.15,7.35-3.75,9.91-5.55h1.35c.3,2.55,1.2,9.46,3.75,6.9s6.45-7.65,6.45-7.65h4.35s8.71-.6,12.61.3c3.9.9,5.25,65.14,4.35,76.4-.75,11.26,6.45,14.41,14.56,13.96s12.01-5.25,11.41-11.41c-.6-6.15-.3-17.71,0-26.12.3-8.41,2.25-49.38,0-54.03,1.5,0,10.07,13.9,42.55,6.97,16.53-3.53,17.1-14.08,19.2-12.88,2.25,1.2,3.99,77.06,4.29,86.67.3,9.61,10.06,11.56,18.76,10.66,8.71-.75,7.8-7.65,7.05-10.51s1.8-52.98,1.8-67.54-5.7-19.81-5.7-19.81c0,0,8.1,7.05,8.41,2.1s-4.05-9.31-2.85-8.41c1.2.9,7.8-.6,5.1-2.1h0l.6-.3h0Z"/>
    <path class="cls-1" d="M233.86,157.39c.6.45,1.05.9,1.65,1.35s1.05.9,1.65,1.2c1.2.6,2.4,1.35,3.6,1.8,2.55,1.2,5.1,2.1,7.8,2.55.75.15,1.5.3,2.25.3s1.65.3,2.55.3l-.9-1.2h0v.45c0,.15-.15.3-.3.6-.15.3-.45.75-.6,1.05-.45.6-.9,1.35-1.35,1.95,0,.15-.3.3-.3.45h0s0,.15-.15.3c-.3.3-.45.6-.75.9-.45.6-1.05,1.2-1.65,1.65-.3.3-.6.6-1.05.9-.15,0-.3.3-.45.45l-.3.3h0s-.15.15,0,0c-.15.15-.3.6-.15.75,0,.3.3.45.6.45,1.5,0,3,0,4.5-.15s3.15-.45,4.5-1.05c.3-.15.75-.3,1.05-.6s.6-.6,1.05-.9l-.9-.6c0,.3-.15.6-.3,1.05,0,0,0,.3-.15.45,0,.15-.15.3-.3.6-.3.6-.6,1.2-.9,1.8-.3.6-.75,1.2-1.05,1.8s-.75,1.05-1.2,1.65c-.6.6-1.05,1.2-1.5,1.95-.3.3.3.75.6.6s.6-.45.9-.6c.3-.3.6-.45.75-.75.45-.45.9-1.2,1.35-1.65.9-1.2,1.5-2.55,2.1-3.9,0-.15.15-.45.15-.6s0-.45.15-.6c.15-.45.3-.75.45-1.2s-.45-.9-.9-.6c-.15,0-.3.15-.45.3h-.15c-.15,0-.45.15-.6.3h-.3c-.15,0-.45.15-.6.3h-.3c-.3,0-.6.15-1.05.3-.6.15-1.35.3-2.1.45,0,0-.3,0-.15,0h-4.35l.45,1.2h-.3c.45,0,.9-.45,1.2-.75s.6-.45.9-.75c.6-.6,1.2-1.05,1.65-1.65,1.2-1.2,2.1-2.55,3.15-3.9.3-.45.45-.75.75-1.2s.45-.75.75-1.2,0-1.35-.6-1.5c-.75-.15-1.5-.15-2.25-.3.3,0,0,0,0,0h-.75c-.3,0-.75,0-1.05-.15-1.35-.3-2.55-.6-3.9-.9s-2.55-.75-3.75-1.35c-.15,0-.3,0-.45-.15h-.15c.15,0,0,0,0,0-.3,0-.6-.3-.9-.45-.6-.3-1.2-.6-1.8-.9-1.35-.75-2.7-1.35-4.05-2.1-.3-.15-.6,0-.75.15s-.15.6,0,.75h0l-.6.3h0Z"/>
    <path class="cls-1" d="M261.92,177.65h.45c.15,0,.3,0,.45-.15,0,0,.3,0,.3-.15s.3-.15.3-.3c.15,0,.3-.15.45-.3h.15c.15-.3.45-.6.6-.75l.75-.75-.9-.6v.9h0s0,.15,0,0h0v.6c0,.45-.15,1.05-.3,1.5-.15,1.05-.3,2.1-.45,3.15v1.95c0,.3.45.15.6,0,.15-.3.15-.6.15-.9v-3.3h0c0-.75.15-1.2.3-1.8,0-.3,0-.6.15-.9s.15-.6.3-.9c0-.3,0-.6-.3-.6h-.75c-.45.45-.75.9-1.2,1.35l-.6.6-.6.6s-.15.3-.3.45h0v.3h0c0,.15.45,0,.45,0h0Z"/>
    <path class="cls-1" d="M299.9,159.04h3.6c1.2,0,2.4.3,3.6.45s2.25.45,3.45.9c.15,0,.6.15.75.3.3,0,.6.15.75.3.45.15.9.45,1.35.75.9.45,1.65,1.05,2.55,1.65,0,0,.15.15,0,0h0s.15.15.3.15c.15.15.45.3.6.45.3.3.75.75,1.05,1.05.15.15.3.3.45.6,0,0,.15.15.15.3h0s0,.15.15.15c.3.45.6.75.75,1.2s.45.9.75,1.35h0c0,.15,0-.15,0,0v.3c0,.3.15.45.3.75.45,1.2.6,2.55.75,3.9,0,.6.3,1.35.45,1.95,0,.3.3.75.45,1.05,0,.15.15.3.3.45s.3.15.45.15.45,0,.45-.15c0,0,.15-.3.15-.45v-.6c0-.3,0-.6-.15-.9,0-.6-.3-1.2-.45-1.8-.15-1.2-.45-2.4-.75-3.6-.6-2.1-1.65-4.05-3-5.7s-3-2.85-4.8-3.9c-1.05-.6-2.1-.9-3.15-1.35-.6-.15-1.2-.3-1.8-.45s-1.2-.3-1.8-.3c-1.35-.15-2.7-.3-4.05-.3s-2.85,0-4.2.3c-.3,0-.3.6,0,.6h0l.6.45h0Z"/>
    <path class="cls-1" d="M391.45,158.14h3.15c1.05,0,2.1,0,3.15.3,1.95.3,3.9.9,5.55,2.1.75.6,1.5,1.2,2.25,1.8s1.5,1.35,2.1,2.1c.3.3.75.75,1.05,1.2.15.15.3.3.45.6,0,0,.15.15.3.3h.15c0,.15,0,.3.15.45h0s.15.15.15.3c.15.15.3.45.45.6.3.45.6.9.9,1.2.6.9,1.2,1.95,1.65,2.85.3.45.6,1.05.75,1.5,0,.3.3.6.45.75s.3.45.45.75c.3.6,1.05.15,1.05-.45s0-.45-.15-.75c0-.3-.15-.6-.3-.75-.15-.45-.45-1.05-.6-1.5-.45-.9-.9-1.8-1.5-2.7-1.05-1.8-2.4-3.45-3.75-5.1s-3-3.15-4.65-4.2-3.75-1.95-6-2.25c-1.2-.15-2.4-.3-3.75-.15h-3.6c-.6,0-.6,1.05,0,.9h.15v.15Z"/>
    <path class="cls-1" d="M292.24,144.33c.45,0,.75,0,1.2-.15h-.3c.9,0,1.95-.15,2.85-.45.45,0,.9-.3,1.2-.45.6-.15,1.05-.45,1.5-.6,1.5-.6,3.15-1.35,4.65-2.1h-.6c2.25-.75,4.5-1.5,6.9-1.8h-.6,3c.45,0,.75-.3,1.2-.45h-.45.9c.6-.3.9-.9.9-1.5s-.3-1.05-.75-1.5c-.15-.15-.45-.3-.6-.45-.9-.6-2.1-.6-3.15-.45-1.65.15-3.45.45-5.1,1.05-3.15,1.05-6,2.85-8.86,4.35-.45.15-.75.45-1.2.6s-.75.45-1.05.6-.75.45-1.2.75c0,0-.3.15-.45.3,0,0-.15,0-.15.15,0,0,.15,0,0,0s-.45.3-.6.3c-.45.3-.6.75-.45,1.2,0,.45.6.9,1.05.75h0l.15-.15Z"/>
    <path class="cls-1" d="M387.4,127.37s0-.3-.15-.3h0c0,.15,0,0,0-.15h-.15s-.15-.15-.15-.3c-.15-.15-.3-.45-.6-.6-.45-.3-.9-.75-1.5-1.05s-1.2-.6-1.8-.75c-.45-.15-.9-.3-1.5-.45-2.4-.75-5.1-1.05-7.65-1.2h-4.2c-.3,0-.6.3-.9.45l-.45.3-.3.45c-.15.45-.3.9-.3,1.2s.15.6.45.9c.3.3.6.6,1.05.75h.15-.45c.3,0,.6,0,.9.15h4.95c1.65,0,3.3.3,4.95.3s1.65,0,2.4.15h-.45,1.05-.45c.45,0,1.05,0,1.5.15h-.45c.6,0,1.05.15,1.5.3h-.3c.3,0,.6,0,.9.15h0c-.45-.15,0,0,0,0h.45c.3,0,.75,0,.9-.3.15-.15.3-.6.3-.9h0l.3.75h0Z"/>
    <path class="cls-1" d="M349.13,131.88h-.9c-.3-.15-.75-.15-1.2-.3-.75-.15-1.65-.15-2.4-.15s-1.65,0-2.4.6-1.35,1.2-1.5,1.95v1.05c0,.3.15.45.3.75s.45.6.75.9c.6.6,1.2,1.05,1.95,1.5,1.2.75,2.55,1.35,3.75,1.8.75.3,1.5.75,2.4.9.9.3,1.8.3,2.85,0,.75-.15,1.5-.45,2.25-.9.6-.3,1.2-.75,1.8-1.05.6-.45,1.35-.9,1.95-1.5s1.2-1.35,1.35-2.25c.3-.9.15-1.95-.3-2.85s-.9-1.2-1.65-1.5c-.6-.3-1.2-.6-1.8-.75-.75-.15-1.5-.3-2.25-.3s-1.65.15-2.55.6c-.6.3-1.05.75-1.65,1.2-.15.15-.45.3-.6.45l.3-.3c-.3.3-.75.6-1.2.75h.45-.6c-.45,0-.75.45-1.05.75-.15.3-.3.9-.15,1.35.3.9,1.2,1.35,2.1,1.2,1.5-.3,2.55-1.5,3.75-2.4l-.3.3c.3-.3.75-.45,1.2-.75h-.45.75-.45,1.5-.45c.6,0,1.35.15,1.8.45h-.45c.3,0,.6,0,.75.3l-.3-.3c.15,0,.3.3.45.45l-.3-.3s.15.3.3.45v-.45.45-.45.6-.45c0,.3,0,.45-.15.75v-.45c0,.3,0,.45-.3.75l.3-.3c-.3.3-.6.6-.9.9l.3-.3c-.45.45-1.05.75-1.65,1.05s-1.2.6-1.65.9h.45c-.45,0-1.05.15-1.5.3h.45-1.05.45c-.75,0-1.35-.3-2.1-.6s-1.35-.45-1.95-.75h.45c-.75-.15-1.5-.45-2.25-.9s-1.35-.75-2.1-1.2h.3c-.15,0-.3,0-.45-.3v.3c.15,0,0-.15,0-.3v.3-.3.3-.45.3h0c0-.15,0,0,0,0v-.45.3-.45.3-.3h-.3.45-.3,1.05-.3,3.6c.3,0,.6,0,.75-.3h0q-.1,0,0,0h.6c.3,0,.6-.3.6-.6s-.15-.75-.45-.75h0v.3l-.15.15Z"/>
    <path class="cls-1" d="M343.42,134.58h0c0,.15,0,0,0,0,0,.3,0,.45.15.6h.15c0,.15,0,.3.15.45,0,.15.3.3.45.45v-.3q-.1,0,0,0c.15.3.3.45.6.6,0,0,.3.15.45.3.3.15.45.3.75.45.6.3,1.2.6,1.95.75.45.15.75.15,1.2.3h1.2c.6-.15,1.2-.6,1.65-.9.45-.3.9-.6,1.5-.9h-.45c.45,0,1.05-.15,1.5-.3h-.45,1.35l-1.35-3.15c-.45.3-.75.75-1.2,1.05l.3-.3c-.45.3-.9.6-1.5.9h.45-1.05.45-.9.45c-.45,0-.75,0-1.2-.3h.45c-.75,0-1.35-.6-1.95-1.05l.3.3c-.3-.3-.6-.45-.9-.75l-1.8,3c.75,0,1.5.15,2.25.3.3,0,.75,0,1.05.15h1.65c.15,0,.3-.15.45-.3.15,0,.3-.15.45-.3.3-.3.3-.6.45-.9v-.45c0-.15,0-.45-.15-.6-.15-.45-.75-.9-1.2-.9h-.6c-.3,0-.75,0-1.05-.15-.75,0-1.5-.3-2.25-.3h-1.2c-.15,0-.3,0-.45.15-.15,0-.3.3-.45.45-.15.3-.15.6-.3.9,0,.3,0,.45.15.75,0,.15.15.45.3.6,1.2,1.05,2.55,2.1,4.05,2.7.9.3,1.8.3,2.85,0,.45,0,.9-.3,1.35-.45.3,0,.6-.3.9-.45.75-.45,1.5-1.05,2.1-1.65l.3-.3v-.45c.15,0,.3-.45.3-.45,0-.3,0-.45-.15-.75,0-.15,0-.3-.15-.45,0,0-.15-.3-.3-.3,0,0-.3-.15-.45-.15s-.45-.15-.75-.15h-1.8c-.45,0-.9.15-1.35.3-.6.15-1.05.45-1.5.75s-.9.75-1.35,1.05l.3-.3c-.15.15-.45.3-.6.45h.45-.45.45-.45.45c-.6,0-1.35-.3-1.95-.45-.3,0-.6-.15-.9-.3-.15,0-.3,0-.45-.15h-.75.3-.6c-.3,0-.75-.15-1.05,0h.3-.15c-.3,0-.6,0-.75.3-.15.15-.3.45-.15.75h.15v-.15Z"/>
    <path class="cls-1" d="M353.18,150.49c0-.3.15-.6.3-.9s.15-.6.3-1.05,0-.6.15-1.05c0-.45,0-.75.15-1.2v.3c0-.6.15-1.2.15-1.8v-6.6h0c0-.3,0-.45-.15-.6s-.3-.3-.45-.45c-.15,0-.45-.15-.75,0-.15,0-.3,0-.6.15-.15,0-.3.3-.45.6s0,.45,0,.6v.6-.3c.15,1.5.3,3,.3,4.5v7.05c0,.3.3.6.6.6s.6,0,.6-.45h-.15Z"/>
    <path class="cls-1" d="M333.52,136.98c-1.35.3-2.55.75-3.9,1.2s-2.7,1.05-3.9,1.65c-2.4,1.2-4.95,2.4-7.2,3.9-.6.45-1.2.9-1.8,1.35-.15,0-.3.15-.45.3-.15.15-.3.3-.6.45,0,0-.3.3-.3.45-.15.15-.3.3-.3.6s.15.75.6.75.6-.15.9-.3c.3-.15.75-.3,1.05-.6.6-.3,1.2-.75,1.8-1.05,1.2-.6,2.25-1.35,3.45-1.95s2.4-1.35,3.6-1.8l1.8-.9c.3,0,.6-.3.9-.45,0,0,.3,0,.3-.15h.15c-.3,0,0,0,0,0,.75-.3,1.5-.6,2.1-.9,0,0,.3,0,.45-.15-.3,0,0,0,0,0,.15,0,.3-.15.6-.15.3-.15.75-.3,1.05-.45.45-.15.75-.6.6-1.05s-.6-.75-1.05-.6h.15v-.15Z"/>
    <path class="cls-1" d="M335.17,141.33c-2.1,1.35-3.9,2.7-5.85,4.2s-3.45,3.15-5.1,4.95c-.45.6-.9,1.05-1.35,1.65-.15.3-.3.6-.6.75s-.15.3-.3.45h0v.6c0,.45.3.6.75.6s.45-.15.6-.3c0,0,.15-.15.3-.3.15-.15.45-.45.6-.6s.45-.45.6-.6.45-.45.6-.6c.75-.9,1.5-1.65,2.4-2.55,1.65-1.65,3.45-3.15,5.25-4.65,0,0,.3-.15.3-.3h.15c.3-.15.45-.45.75-.6.6-.45,1.05-.75,1.65-1.2.3-.3.6-.75.3-1.2-.3-.3-.75-.6-1.2-.3h.15Z"/>
    <path class="cls-1" d="M338.32,145.08c-1.95,1.8-3.75,3.75-5.7,5.7-.9.9-1.8,1.95-2.7,3s-1.8,2.1-2.55,3.3c-.45.6-.75,1.35-1.2,1.95-.15.3-.45.75-.6,1.2,0,.15,0,.3-.15.6v.75c0,.3.45.6.75.45.15,0,.45-.15.6-.3,0,0,.15-.3.3-.3.3-.3.45-.6.75-.9.3-.6.75-1.05,1.2-1.65.75-1.05,1.5-2.1,2.25-3.15,0,0,.15-.3.3-.3,0-.15,0,.15,0,0,0,0,0-.15.15-.15.15-.3.45-.6.6-.75.45-.45.9-1.05,1.35-1.5.9-1.05,1.8-1.95,2.7-2.85,1.05-1.05,2.1-2.1,3.15-3.15.3-.3.3-.9,0-1.2s-.9-.3-1.2,0h0v-.75h0Z"/>
    <path class="cls-1" d="M367.74,134.73h1.05s.3,0,0,0h1.5c-.15,0,0,0,0,0h.3c.3,0,.75,0,1.05.15,1.35.15,2.7.45,4.05.9s2.55.75,3.9,1.2c.3,0,.6.3.9.3s.3,0,.45.15c-.3,0,0,0,0,0h.3l1.8.9c.75.3,1.35.75,2.1,1.05.3.15.6.45,1.05.6.45.15.75.45,1.2.45s.75,0,1.05-.3c.15-.3.3-.75,0-1.05-.45-.6-1.2-1.2-1.8-1.5l-1.8-.9c-1.35-.6-2.7-1.2-4.05-1.8-2.7-.9-5.4-1.65-8.26-1.95-1.5-.15-3.15-.15-4.65,0-.3,0-.75.3-.75.75s.3.6.75.75h0v.3h-.15Z"/>
    <path class="cls-1" d="M370.14,138.63c.45,0,1.05.3,1.5.45s1.05.3,1.5.6,1.05.3,1.5.6c.15,0,.45.15.6.3,0,0,.3,0,0,0h.15s.3,0,.45.15c1.95.9,3.75,1.8,5.4,3,.45.3.9.6,1.5,1.05s.9.75,1.5,1.05h-.3c.15,0,.3,0,.45.15s.3.15.6.15c.45,0,.9,0,1.2-.45,0-.15.15-.3.15-.6v-.75c-.3-.6-.75-.9-1.35-1.35-.45-.45-1.05-.75-1.5-1.2-.9-.6-1.8-1.2-2.85-1.65-2.1-1.05-4.2-1.95-6.45-2.55-1.2-.3-2.55-.6-3.75-.75-.3,0-.75.3-.75.6s.15.75.6.75h0v.45h-.15Z"/>
    <path class="cls-1" d="M367.89,143.43c.6.3,1.2.6,1.8,1.05s1.2.75,1.8,1.05c1.2.75,2.25,1.5,3.45,2.4s1.2.9,1.8,1.35h-.3c.9.6,1.8,1.35,2.7,2.1.45.45.9.75,1.35,1.2.15.15.45.3.75.6.3.15.45.45.75.6h1.05c.3,0,.45-.45.6-.75.15-.45,0-.9-.3-1.35-.75-.9-1.5-1.65-2.4-2.25-.9-.75-1.95-1.5-3-2.25-.9-.6-1.8-1.35-2.85-1.8s-1.95-1.05-3-1.65c-.15,0-.3-.15-.6-.3h-.3s.15,0,0,0c-.3,0-.6-.3-.9-.45-.6-.3-1.35-.6-1.95-.75h-.75c-.3,0-.3.3-.3.45-.15.3,0,.9.3,1.05h0l.3-.3h0Z"/>
    <path class="cls-1" d="M374.94,107.41c-.3-.3-.75-.6-1.05-.9s-.6-.6-1.05-.9c-.75-.6-1.5-1.2-2.25-1.8-1.5-1.05-3-1.95-4.65-2.85-3.3-1.65-6.9-3-10.51-3.9-1.05-.3-2.1-.45-3-.6h-1.8c-.15,0,0,0,0,0h-1.5c-.6.15-.6.9-.15,1.2s.9.3,1.35.45c.15,0,0,0,0,0h.6c.3,0,.45,0,.75.15.9.15,1.8.45,2.7.6,1.8.45,3.6.9,5.25,1.5.9.3,1.65.6,2.55.9.15,0,.45.15.6.3h.15q.1,0,0,0c-.15,0,0,0,0,0h.15c.45.15.75.3,1.2.6,1.65.75,3.3,1.65,4.8,2.55.9.45,1.8,1.05,2.55,1.5s1.8,1.05,2.7,1.65c.45.3,1.05-.45.6-.9h0v.45h0Z"/>
    <path class="cls-1" d="M199.94,122.12l.9-.9s.3-.15.45-.3c.15,0,.45-.15.6-.3.15,0,.45-.15.6-.3,0,0,.3,0,.45-.15.45,0,.75-.3,1.2-.3s.75-.15,1.2-.3h.15s.15,0,0,0h4.2c4.35.15,8.71,1.2,13.06,2.25,3.6.9,7.2,1.8,10.66,2.85,1.8.6,3.45,1.2,5.25,1.8l1.2.45c.15,0,.45.15.6.3-.15,0,0,0,0,0h.15s.15,0,.3.15c.9.3,1.65.75,2.4,1.2,1.65.75,3.15,1.65,4.65,2.7s1.5,1.05,2.25,1.5h.15s.15,0,.3.15c.15.15.45.3.6.45.3.3.75.6,1.05.9l.45.45c.15.15.45.3.6.45.45.3,1.05-.3.75-.75,0-.15-.3-.45-.45-.6s-.3-.3-.45-.6l-.9-.9c-.75-.6-1.5-1.2-2.25-1.8-1.5-1.05-3-2.1-4.65-2.85-3.3-1.8-6.9-3.15-10.36-4.2s-7.2-1.95-10.96-2.85c-4.35-1.05-8.86-2.1-13.21-2.4-2.1,0-4.2,0-6.3.3-.9.15-1.65.45-2.55.75s-1.35.9-2.1,1.5c-.3.3-.6.6-.75,1.05v.6h.6v-.3h.15Z"/>
    <path class="cls-1" d="M250.37,138.18c-.6-1.05-1.5-1.95-2.55-2.55-.9-.6-1.95-1.2-3-1.65-.6-.3-1.05-.6-1.65-1.05h.15c-.45-.15-.9-.6-1.2-1.05h0c0,.15,0,0,0,0l-.75,1.35c1.8-.15,3.6-.3,5.4,0,.45,0,1.05,0,1.5.15h-.3c.6,0,1.05,0,1.65.15.6,0,1.2.15,1.8.3.15,0,.6,0,.75-.3s.3-.3.3-.6c0-.45-.15-.9-.75-1.05-.75-.15-1.5-.3-2.1-.45-.6,0-1.35,0-1.95-.15h-3.9c-.75,0-1.5,0-2.25.15h-.45c-.15,0-.15.15-.3.3,0,.3-.15.6,0,.9.3.45.75.9,1.2,1.35s.9.75,1.5,1.05c.9.6,1.95,1.05,2.85,1.65.6.3,1.05.6,1.5.9h-.15c.3,0,.6.3.75.6h.15c0,.15,0,.3.15.45.15.3.6.45,1.05.3s.45-.6.3-1.05h0l.3.3h0Z"/>
    <path class="cls-1" d="M249.62,138.03c-.45,0-.9-.15-1.35-.3h-1.2c-.9-.15-1.65-.3-2.55-.3h-4.95c-.9,0-1.95,0-2.85.15-.45,0-.75.3-.75.75s.15.75.6.9c.45,0,1.05.3,1.5.45.3,0,.45.15.75.3h.45c.15,0-.15,0,0,0,.9.45,1.8.9,2.7,1.35.45.3.9.6,1.35.9,0,0,.15.15.3.15h.15c.15.15.45.3.6.45.75.6,1.5,1.35,2.1,2.1.15.15.3.45.6.6l.3.3h0c-.15,0,0,.15,0,.15.15.3.45.6.6.75l.6.6c.45.45,1.2,0,1.05-.6,0-.3-.15-.45-.3-.75,0-.3-.3-.6-.45-.75-.3-.45-.6-.9-1.05-1.35-.6-.75-1.35-1.5-2.1-2.25-1.65-1.35-3.45-2.55-5.4-3.45-1.2-.45-2.25-.9-3.45-1.2v1.65c3.15,0,6.45,0,9.76.15h2.85c.6,0,.6-.3.75-.6s-.15-.75-.6-.75h0v.6h0Z"/>
    <path class="cls-1" d="M247.22,149.14c-.15,0-.45,0-.6-.15h.15c-.3,0-.75-.3-1.05-.6h.15c-.3,0-.6-.45-.9-.75h0c-.3-.15-.45-.45-.6-.9h-.15c0-.15-.75.9-.75.9h.9-.15c1.05,0,2.1.3,3.15.75,0,0,.3,0,.45.15h1.05c0-.15,0-.3.15-.3h0v-.3h0c0-.15,0-.3-.15-.45h0c-.1-.1-.25-.2-.45-.3h-.15c-.15,0-.3,0-.45-.15-.3,0-.6-.15-.9-.3-.75-.15-1.35-.3-2.1-.45h-1.5s-.15,0-.15.15c0,0,0,.15-.15.3v.45c0,.3.3.75.45,1.05s.45.6.6.9.6.45.9.75c.3.15.6.3.75.45.3.15.75.3,1.2.45h.6c.15,0,.3-.3.3-.45v-.6s-.3-.3-.45-.3h0v-.3h-.15Z"/>
    <path class="cls-1" d="M287.59,172.1c.45.45.9,1.05,1.35,1.65h0s0,.15.15.15c0,.15.15.3.3.45.15.3.45.6.6.9.15.3.45.6.6,1.05h0s.15.45.3.75h0c0,.45,0,1.05.3,1.65v.45c0,.15,0,.3.15.6,0,0,.15.15.3.3,0,.15.3.3.45.45.15,0,.3,0,.45-.15.15-.15,0-.45,0-.75v-.75c0-.45-.15-.75-.3-1.2h0c0-.3,0-.9-.15-1.5s-.45-1.05-.75-1.35c-.6-.9-1.2-1.65-1.95-2.4-.3-.45-.75-.75-1.2-1.2-.15-.15-.6-.15-.75,0s-.15.6,0,.75h0l.15.15Z"/>
    <path class="cls-1" d="M315.21,257.05v.45h0v2.7s0,.15,0,0h0v.6c0,.3,0,.6-.15.75,0,.6-.3,1.05-.45,1.65-.15.6-.45,1.2-.75,1.8h0c-.3.45-.6,1.05-.9,1.8-.15.3-.3.6-.45.9,0,.15-.15.45-.3.6,0,.3-.15.6,0,.9,0,.3.6.6.9.45.3,0,.45-.3.75-.6h.15c0-.3.15-.45.3-.6.15-.3.45-.75.6-1.2.45-.75.75-1.65,1.05-2.55.3-.75.6-1.65.75-2.55s.15-1.8.15-2.85-.15-2.1-.45-3c0-.3-.45-.6-.75-.45-.3,0-.6.45-.45.75h0v.45h0Z"/>
    <path class="cls-1" d="M304.85,257.35v2.4c0,.75,0,1.65-.3,2.4h0c0,.75-.3,1.8-.6,2.85,0,.45-.3,1.05-.45,1.5,0,.3-.15.45-.15.75v1.05c0,.3.15.6.45.6s.6,0,.75-.15.3-.3.3-.6.15-.45.3-.6c0-.3.15-.75.3-1.05.15-.75.3-1.5.45-2.1.3-1.5.45-3,.3-4.5,0-.9,0-1.8-.3-2.7,0,0-.15-.3-.3-.3h-.3c-.3,0-.45.3-.45.6h0v-.15Z"/>
    <path class="cls-1" d="M409.31,255.7h0v1.2c0,.15,0,0,0,0v.3c0,.15,0,0,0,0h0v2.7c0,.75,0,1.5-.15,2.1,0,0,0,.3,0,0v.75h0c0,.45,0,.9-.15,1.2,0,.15,0,.3-.15.6v.3c0,.15,0,0,0,0h0s0,.3-.15.45h0s0,.3-.15.45v.45c0,.3.3.3.6.3s.45,0,.6-.3c.15-.15.3-.3.45-.6s.15-.45.3-.6c0-.15,0-.3.15-.6.3-.75.45-1.5.45-2.25v-4.65c0-.45,0-.9-.3-1.35s-.3-.9-.6-1.2c0-.15-.45-.3-.6-.15s-.3.45-.15.6h0v.3h-.15Z"/>
    <path class="cls-1" d="M399.26,257.35c0,.3.15.6.15,1.05v.75c0,.15,0,0,0,0h0v8.1c0,.15,0,.45.15.6,0,.15.3.3.45,0,0,0,.3-.3.3-.45s0-.3.15-.6c0-.3.15-.75.15-1.2,0-.75.15-1.35.15-2.1v-3.15c0-.3,0-.75-.3-1.2-.15-.75-.3-1.5-.6-2.25,0-.3-.3-.45-.6-.3s-.45.3-.3.6h.3v.15Z"/>
    <path class="cls-1" d="M71.33,167c.45.3.75.75,1.2,1.2,0,.15-2.1-1.95-1.2-1.2Z"/>
  </g>
</svg>