<?xml version="1.0" encoding="UTF-8"?>
<svg id="Layer_1" xmlns="http://www.w3.org/2000/svg" version="1.1" xmlns:xlink="http://www.w3.org/1999/xlink" viewBox="0 0 458.6 412.4">
  <!-- Generator: Adobe Illustrator 30.2.1, SVG Export Plug-In . SVG Version: 2.1.1 Build 1)  -->
  <defs>
    <style>
      .st0 {
        fill: #6e69ff;
      }

      .st1 {
        fill: #4d36b2;
      }

      .st1, .st2 {
        fill-rule: evenodd;
      }

      .st3 {
        fill: #fff;
      }

      .st4 {
        fill: none;
      }

      .st2 {
        fill: #0d0577;
      }

      .st5 {
        clip-path: url(#clippath);
      }
    </style>
    <clipPath id="clippath">
      <path class="st4" d="M349.1,193c-1.8-.9-7.5-6-6.4-5.9,1.2.1,4.4-2.6,3.5-3s-3.5-1.4-7.2-3.4c0,0,6.3-9.5,10-17.1s4.3-14.8-3.4-12.6c-7.7,2.2-33.4,3.6-34.5,3.6-1.1,0-3.6-1.9-19.1-3.1.4-2.2.1-5.2-.6-5.7-.9-.7-1,.5-3.9,4.1-.2-.6-5.1-6.1-5-4.1,0,1.6-1.1,3.9-3.3,5.9-13.1,1.5-24.9,6.5-27.6,8.8-3.5,3-23.3,3.2-36.5.5-13.2-2.7-13.9,5.4-10.6,11.7,2.4,4.5,13.9,13.9,22.6,19.3-7.1.8-29.6-4.1-42-7.5-13.4-3.7-74.4-23.1-101.6,13.8-5.8-4.7-17.5-8.6-29-1.4-12.1,7.6-12.8,43.1-10.5,61.2,2.3,18.1,13.1,57.4,11.3,61.1-1.8,3.7-11.5,6.1-9.9,17s3.1,23.6,9.7,23.5,3.3-16.9,3.1-22.5c-.2-5.6,3.7-10.6,8.8-12.3s3.1-21.4.2-30.3c-2.9-9-12.8-48.9-9.7-64.4,3.1-15.6.5-29.9,23.4-27.7,19.1,1.5,47.7.7,55.1,1.2,6.2.4,77.8.6,101.7.6-.6,1.8-1.4,3.6-.5,3.7,1.1.1,4.9-2.5,6.6-3.7h.9c.2,1.7.8,6.3,2.5,4.6,2.1-2.1,4.3-5.1,4.3-5.1h2.9s5.8-.4,8.4.2c2.6.6,3.5,43.4,2.9,50.9-.5,7.5,4.3,9.6,9.7,9.3s8-3.5,7.6-7.6c-.4-4.1-.2-11.8,0-17.4.2-5.6,1.5-32.9,0-36,1,0,37.1-.5,37.1-.5,0,0,3.9-.3,5.3.5,1.5.8,1.4,47.4,1.6,53.8.2,6.4,6.7,7.7,12.5,7.1,5.8-.5,5.2-5.1,4.7-7s1.2-35.3,1.2-45-3.8-13.2-3.8-13.2c0,0,5.4,4.7,5.6,1.4.2-3.3-2.7-6.2-1.9-5.6.8.6,5.2-.4,3.4-1.4h0Z"/>
    </clipPath>
  </defs>
  <g>
    <path class="st2" d="M374.3,221.1c26.9.5,49.9,29.2,42.3,56.3-5.1,18.5-23.2,32.4-42.9,32.6l-94.4,40c-2,0-2.3-.3-3.1-.7-2.9-1.2-4.9-4.3-5-7.5v-112.6c0-2,.3-2.4.7-3.1,1.2-3,4.2-4.9,7.5-5,31.7,0,63.3-.2,95,0h0ZM287.5,237.3v96.4c28.9,0,43.3-32.7,86.7-40,16.7-2.8,31.6-18.5,26.8-35.8-3.3-11.7-14.5-20.4-26.8-20.7-28.9,0-57.8,0-86.7,0h0Z"/>
    <path class="st2" d="M348.3,202.5H83.1v41.8c0,73.2,59.4,132.6,132.6,132.6h0c73.2,0,132.6-59.4,132.6-132.6v-41.8h0Z"/>
    <path class="st1" d="M147.9,244.7c4-7.5,11.9-7.5,15.7-3.8,4,3.8,4,11.3,0,18.8-2.3,4.5-7.5,9.2-12.5,12.8-1.9,1.3-4.5,1.3-6.4,0-5.1-3.6-10.3-8.2-12.6-12.8-4-7.5-4-15,0-18.8,4-3.7,11.9-3.7,15.7,3.8h0ZM83.1,243.4v.9c0,4.3.2,8.5.6,12.7.4.9.8,1.7,1.2,2.6,2.3,4.5,7.6,9.2,12.6,12.8,1.9,1.3,4.5,1.3,6.3,0,5.1-3.6,10.3-8.2,12.6-12.8,3.9-7.5,3.9-15,0-18.8-4-3.7-11.8-3.7-15.7,3.8-4-7.5-11.8-7.5-15.8-3.8-.8.8-1.3,1.6-1.8,2.6h0ZM347.4,260.1c.6-5.2,1-10.5,1-15.8v-2.6c-.2-.3-.5-.5-.7-.8-4-3.7-11.9-3.7-15.8,3.8-3.9-7.5-11.8-7.5-15.7-3.8-3.9,3.8-3.9,11.3,0,18.8,2.3,4.5,7.6,9.2,12.6,12.8,1.9,1.3,4.5,1.3,6.4,0,4.8-3.4,10-7.9,12.3-12.3h0ZM284.7,244.7c3.9-7.5,11.9-7.5,15.7-3.8,4,3.8,4,11.3,0,18.8-2.3,4.5-7.5,9.2-12.6,12.8-1.9,1.3-4.4,1.3-6.3,0-5.1-3.6-10.3-8.2-12.6-12.8-4-7.5-4-15,0-18.8,3.9-3.7,11.8-3.7,15.7,3.8h0Z"/>
    <path class="st1" d="M215.7,249.2c9-17.1,27-17.1,35.9-8.5,9,8.5,9,25.6,0,42.7-5.8,11.9-20.1,23.7-32.9,32.1-1.8,1.2-4.2,1.2-6.1,0-12.7-8.4-27-20.3-32.8-32.1-9-17.1-9-34.1,0-42.7,8.9-8.5,26.9-8.5,35.8,8.5h0Z"/>
    <path class="st1" d="M340.2,290.1c-12.2-2.5-30.9-2.6-49.7,11.3-32,23.4-83.2,55.6-133.8,10-26.2-23.5-48.4-28.1-66.8-25.1,17.5,52.6,67.2,90.5,125.7,90.5h0c57.1,0,105.7-36.1,124.4-86.8h0Z"/>
    <path class="st1" d="M375.5,376.9H55.9c0,11.9,8.1,21.5,18.1,21.5h283.4c10,0,18.1-9.7,18.1-21.5h0Z"/>
  </g>
  <g class="st5">
    <g>
      <path class="st0" d="M349.1,193c-1.8-.9-7.5-6-6.4-5.9s4.4-2.6,3.5-3-3.5-1.4-7.2-3.4c0,0,6.3-9.5,10-17.1s4.3-14.8-3.4-12.6-33.4,3.6-34.5,3.6c-1.1,0-3.6-1.9-19.1-3.1.4-2.2.1-5.2-.6-5.7-.9-.7-1,.5-3.9,4.1-.2-.6-5.1-6.1-5-4.1,0,1.6-1.1,3.9-3.3,5.9-13.1,1.5-24.9,6.4-27.6,8.8-3.5,3-23.3,3.2-36.5.5-13.2-2.7-13.9,5.4-10.6,11.7,2.4,4.5,13.9,13.9,22.6,19.3-7.1.8-29.6-4.1-42-7.6-13.4-3.7-74.4-23.1-101.6,13.8-5.8-4.7-17.5-8.6-29-1.4-12.1,7.6-12.8,43.1-10.5,61.2,2.3,18.1,13.1,57.4,11.3,61.1-1.8,3.7-11.5,6.1-9.9,17s3.1,23.6,9.7,23.5,3.3-16.9,3.1-22.5c-.2-5.6,3.7-10.6,8.8-12.3s3.1-21.4.2-30.3c-2.9-9-12.8-48.9-9.7-64.4,3.1-15.6.5-29.9,23.4-27.7,19.1,1.5,47.7.7,55.1,1.2,6.2.4,77.8.6,101.7.6-.6,1.8-1.4,3.6-.5,3.7,1.1.1,4.9-2.5,6.6-3.7h.9c.2,1.7.8,6.3,2.5,4.6,2.1-2.1,4.3-5.1,4.3-5.1h2.9s5.8-.4,8.4.2c2.6.6,3.5,43.4,2.9,50.9-.5,7.5,4.3,9.6,9.7,9.3s8-3.5,7.6-7.6c-.4-4.1-.2-11.8,0-17.4s1.5-32.9,0-36c1,0,37.1-.5,37.1-.5,0,0,3.9-.3,5.3.5,1.5.8,1.4,47.4,1.6,53.8.2,6.4,6.7,7.7,12.5,7.1,5.8-.5,5.2-5.1,4.7-7s1.2-35.3,1.2-45-3.8-13.2-3.8-13.2c0,0,5.4,4.7,5.6,1.4s-2.7-6.2-1.9-5.6c.8.6,5.2-.4,3.4-1.4h0Z"/>
      <path class="st3" d="M224.3,191.4c.4.3.7.6,1.1.9s.7.6,1.1.8c.8.4,1.6.9,2.4,1.2,1.7.8,3.4,1.4,5.2,1.7.5.1,1,.2,1.5.2.5,0,1.1.2,1.7.2l-.6-.8s0,0,0,.1c0,0,0,0,0,0,0,0,0,.1,0,.2,0,.1-.1.2-.2.4-.1.2-.3.5-.4.7-.3.4-.6.9-.9,1.3,0,.1-.2.2-.2.3,0,0,0,0,0,0,0,0,0,.1-.1.2-.2.2-.3.4-.5.6-.3.4-.7.8-1.1,1.1-.2.2-.4.4-.7.6-.1,0-.2.2-.3.3,0,0-.1.1-.2.2,0,0,0,0,0,0,0,0-.1.1,0,0-.1.1-.2.4-.1.5,0,.2.2.3.4.3,1,0,2,0,3-.1s2.1-.3,3-.7c.2-.1.5-.2.7-.4.2-.2.4-.4.7-.6l-.6-.4c0,.2-.1.4-.2.7,0,0,0,.2-.1.3,0,.1-.1.2-.2.4-.2.4-.4.8-.6,1.2-.2.4-.5.8-.7,1.2s-.5.7-.8,1.1c-.4.4-.7.8-1,1.3-.2.2.2.5.4.4s.4-.3.6-.4c.2-.2.4-.3.5-.5.3-.3.6-.8.9-1.1.6-.8,1-1.7,1.4-2.6,0-.1.1-.3.1-.4,0-.1,0-.3.1-.4.1-.3.2-.5.3-.8.1-.3-.3-.6-.6-.4-.1,0-.2.1-.3.2,0,0,0,0-.1,0,0,0,0,0,0,0,0,0,0,0,0,0-.1,0-.3.1-.4.2,0,0-.1,0-.2,0s0,0,0,0c0,0,0,0,0,0-.1,0-.3.1-.4.2,0,0,0,0,0,0,0,0-.1,0-.2,0-.2,0-.4.1-.7.2-.4.1-.9.2-1.4.3,0,0-.2,0-.1,0,0,0-.1,0-.2,0-.1,0-.2,0-.4,0-.2,0-.5,0-.7,0-.5,0-1.1,0-1.6,0l.3.8h0s-.2,0-.2,0c.3,0,.6-.3.8-.5.2-.2.4-.3.6-.5.4-.4.8-.7,1.1-1.1.8-.8,1.4-1.7,2.1-2.6.2-.3.3-.5.5-.8s.3-.5.5-.8c.2-.3,0-.9-.4-1-.5-.1-1-.1-1.5-.2.2,0,0,0,0,0,0,0-.1,0-.2,0-.1,0-.2,0-.3,0-.2,0-.5,0-.7-.1-.9-.2-1.7-.4-2.6-.6s-1.7-.5-2.5-.9c-.1,0-.2,0-.3-.1,0,0-.1,0-.1,0,.1,0,0,0,0,0-.2,0-.4-.2-.6-.3-.4-.2-.8-.4-1.2-.6-.9-.5-1.8-.9-2.7-1.4-.2-.1-.4,0-.5.1-.1.1-.1.4,0,.5h0Z"/>
      <path class="st3" d="M243,204.9c0,0,.2,0,.3,0,.1,0,.2,0,.3-.1,0,0,.2,0,.2-.1s.2-.1.2-.2c.1,0,.2-.1.3-.2h0s0,0,0,0c0,0,0,0,0,0,0,0,0,0,0,0,0,0,0,0,.1-.1.1-.1.3-.3.4-.4.2-.2.3-.3.5-.5l-.6-.4c0,.2,0,.4,0,.6h0c0,0,0,.1,0,0,0,0,0,0,0,.1,0,0,0,.2,0,.3,0,.3-.1.7-.2,1-.1.7-.2,1.4-.3,2.1,0,.2,0,.4,0,.6v.3c0,0,0,.1,0,.2,0,0,0,.1,0,.2,0,.2.3.1.4,0,.1-.2.1-.4.1-.6,0-.2,0-.4,0-.5,0-.3,0-.7,0-1,0-.2,0-.4,0-.5,0,0,0-.2,0-.2,0,0,0,0,0-.1h0q0,0,0,0h0c0-.4.1-.7.2-1.1,0-.2,0-.4.1-.6s.1-.4.2-.6c0-.2,0-.4-.2-.4-.1,0-.4,0-.5,0-.3.3-.5.6-.8.9-.1.1-.3.3-.4.4s-.3.3-.4.4c0,0-.1.2-.2.3,0,0,0,.1,0,.1s0,0,0,.1c0,0,0,.1,0,.1h0Z"/>
      <path class="st3" d="M268.3,192.5c.8,0,1.6,0,2.4,0s1.6.2,2.4.3,1.5.3,2.3.6c.1,0,.4.1.5.2.2,0,.4.1.5.2.3.1.6.3.9.5.6.3,1.1.7,1.7,1.1,0,0,.1.1,0,0,0,0,0,0,0,0,0,0,.1.1.2.1.1.1.3.2.4.3.2.2.5.5.7.7.1.1.2.2.3.4,0,0,.1.1.1.2,0,0,0,0,0,0,0,0,0,.1.1.1.2.3.4.5.5.8s.3.6.5.9c0,0,0,0,0,0,0,.1,0-.1,0,0,0,0,0,.1,0,.2,0,.2.1.3.2.5.3.8.4,1.7.5,2.6,0,.4.2.9.3,1.3,0,.2.2.5.3.7,0,.1.1.2.2.3s.2.1.3.1.3,0,.3-.1c0,0,.1-.2.1-.3,0-.1,0-.3,0-.4,0-.2,0-.4-.1-.6,0-.4-.2-.8-.3-1.2-.1-.8-.3-1.6-.5-2.4-.4-1.4-1.1-2.7-2-3.8s-2-1.9-3.2-2.6c-.7-.4-1.4-.6-2.1-.9-.4-.1-.8-.2-1.2-.3s-.8-.2-1.2-.2c-.9-.1-1.8-.2-2.7-.2s-1.9,0-2.8.2c-.2,0-.2.4,0,.4h0Z"/>
      <path class="st3" d="M329.3,191.9c.7,0,1.4,0,2.1,0s1.4,0,2.1.2c1.3.2,2.6.6,3.7,1.4.5.4,1,.8,1.5,1.2s1,.9,1.4,1.4c.2.2.5.5.7.8.1.1.2.2.3.4,0,0,.1.1.2.2,0,0,0,0,0,0,0,0,0,0,.1.1,0,0,0,.1.1.2,0,0,0,0,0,0,0,0,.1.1.1.2.1.1.2.3.3.4.2.3.4.6.6.8.4.6.8,1.3,1.1,1.9.2.3.4.7.5,1,0,.2.2.4.3.5s.2.3.3.5c.2.4.7.1.7-.3,0-.2,0-.3-.1-.5,0-.2-.1-.4-.2-.5-.1-.3-.3-.7-.4-1-.3-.6-.6-1.2-1-1.8-.7-1.2-1.6-2.3-2.5-3.4s-2-2.1-3.1-2.8-2.5-1.3-4-1.5c-.8-.1-1.6-.2-2.5-.1-.4,0-.8,0-1.2,0s-.8,0-1.2,0-.4.7,0,.6h0Z"/>
      <path class="st3" d="M263.2,182.7c.3,0,.5,0,.8-.1h-.2c.6,0,1.3-.1,1.9-.3.3,0,.6-.2.8-.3.4-.1.7-.3,1-.4,1-.4,2.1-.9,3.1-1.4h-.4c1.5-.5,3-1,4.6-1.2h-.4c.4,0,.7,0,1.1,0,.3,0,.6,0,.9,0,.3,0,.5-.2.8-.3h-.3c.2,0,.4,0,.6,0,.4-.2.6-.6.6-1s-.2-.7-.5-1c-.1-.1-.3-.2-.4-.3-.6-.4-1.4-.4-2.1-.3-1.1.1-2.3.3-3.4.7-2.1.7-4,1.9-5.9,2.9-.3.1-.5.3-.8.4s-.5.3-.7.4-.5.3-.8.5c0,0-.2.1-.3.2,0,0-.1,0-.1.1,0,0,.1,0,0,0s-.3.2-.4.2c-.3.2-.4.5-.3.8,0,.3.4.6.7.5h0Z"/>
      <path class="st3" d="M326.6,171.4c0,0,0-.2-.1-.2h0c0,.1,0,0,0-.1h-.1c0,0,0,0,0,0,0,0-.1-.1-.1-.2-.1-.1-.2-.3-.4-.4-.3-.2-.6-.5-1-.7s-.8-.4-1.2-.5c-.3-.1-.6-.2-1-.3-1.6-.5-3.4-.7-5.1-.8-.5,0-.9,0-1.4,0-.4,0-.7,0-1.1,0-.1,0-.2,0-.3,0-.2,0-.4.2-.6.3l-.3.2-.2.3c-.1.3-.2.6-.2.8,0,.2.1.4.3.6.2.2.4.4.7.5,0,0,0,0,.1,0h-.3c.2,0,.4,0,.6.1.3,0,.5,0,.8,0h.8c.6,0,1.1,0,1.7,0,1.1,0,2.2.2,3.3.2.5,0,1.1,0,1.6.1h-.3c.2,0,.5,0,.7,0h-.3c.3,0,.7,0,1,.1h-.3c.4,0,.7.1,1,.2h-.2c.2,0,.4,0,.6.1,0,0,0,0,0,0-.3-.1,0,0,0,0,0,0,.2,0,.3,0,.2,0,.5,0,.6-.2.1-.1.2-.4.2-.6h0Z"/>
      <path class="st3" d="M301.1,174.4c-.1,0-.2,0-.4,0,0,0,0,0-.1,0,0,0,0,0,0,0s0,0,0,0c0,0,0,0,0,0,0,0,0,0-.1,0-.2-.1-.5-.1-.8-.2-.5-.1-1.1-.1-1.6-.1s-1.1,0-1.6.4-.9.8-1,1.3c0,.2,0,.4,0,.7,0,.2.1.3.2.5.1.2.3.4.5.6.4.4.8.7,1.3,1,.8.5,1.7.9,2.5,1.2.5.2,1,.5,1.6.6.6.2,1.2.2,1.9,0,.5-.1,1-.3,1.5-.6.4-.2.8-.5,1.2-.7.4-.3.9-.6,1.3-1,.4-.4.8-.9.9-1.5.2-.6.1-1.3-.2-1.9-.2-.4-.6-.8-1.1-1-.4-.2-.8-.4-1.2-.5-.5-.1-1-.2-1.5-.2s-1.1.1-1.7.4c-.4.2-.7.5-1.1.8-.1.1-.3.2-.4.3l.2-.2c-.2.2-.5.4-.8.5h.3c-.1,0-.3,0-.4,0-.3,0-.5.3-.7.5-.1.2-.2.6-.1.9.2.6.8.9,1.4.8,1-.2,1.7-1,2.5-1.6l-.2.2c.2-.2.5-.3.8-.5h-.3c.2,0,.4,0,.5,0h-.3c.3,0,.7,0,1,0h-.3c.4,0,.9.1,1.2.3h-.3c.2,0,.4,0,.5.2l-.2-.2c.1,0,.2.2.3.3l-.2-.2c0,0,.1.2.2.3v-.3c0,.1,0,.2,0,.3v-.3c0,.1,0,.3,0,.4v-.3c0,.2,0,.3-.1.5v-.3c0,.2,0,.3-.2.5l.2-.2c-.2.2-.4.4-.6.6l.2-.2c-.3.3-.7.5-1.1.7s-.8.4-1.1.6h.3c-.3,0-.7.1-1,.2h.3c-.2,0-.5,0-.7,0h.3c-.5,0-.9-.2-1.4-.4s-.9-.3-1.3-.5h.3c-.5-.1-1-.3-1.5-.6s-.9-.5-1.4-.8h.2c-.1,0-.2,0-.3-.2v.2c.1,0,0-.1,0-.2v.2c0,0,0-.1,0-.2v.2c0-.1,0-.2,0-.3v.2c0,0,0-.1,0-.1v.2c0,0,0-.2,0-.3v.2c0-.1,0-.2,0-.3v.2c0,0,0-.1,0-.2h-.2c.1,0,.2,0,.3,0h-.2c.2,0,.4,0,.7,0h-.2c.5,0,1.1,0,1.6,0,.3,0,.5,0,.8,0,.2,0,.4,0,.5-.2,0,0,0,0,0,0-.1,0-.1,0,0,0,.1,0,.3,0,.4,0,.2,0,.4-.2.4-.4s-.1-.5-.3-.5h0Z"/>
      <path class="st3" d="M297.3,176.2s0,0,0,.1v-.2c0,.2,0,.3.1.4,0,0,0,0,.1.1,0,0,0,.1.1.2,0,.1.2.2.3.3v-.2c-.1,0-.1,0,0,0,.1.2.2.3.4.4,0,0,.2.1.3.2.2.1.3.2.5.3.4.2.8.4,1.3.5.3.1.5.1.8.2.1,0,.2,0,.3,0,.2,0,.4,0,.5,0,.4-.1.8-.4,1.1-.6.3-.2.6-.4,1-.6h-.3c.3,0,.7-.1,1-.2h-.3c.3,0,.6,0,.9,0l-.9-2.1c-.3.2-.5.5-.8.7l.2-.2c-.3.2-.6.4-1,.6h.3c-.2,0-.5,0-.7,0h.3c-.2,0-.4,0-.6,0h.3c-.3,0-.5,0-.8-.2h.3c-.5,0-.9-.4-1.3-.7l.2.2c-.2-.2-.4-.3-.6-.5l-1.2,2c.5,0,1,.1,1.5.2.2,0,.5,0,.7.1.1,0,.2,0,.4,0s.2,0,.4,0h.3c.1,0,.2-.1.3-.2.1,0,.2-.1.3-.2.2-.2.2-.4.3-.6,0,0,0-.2,0-.3,0-.1,0-.3-.1-.4-.1-.3-.5-.6-.8-.6-.1,0-.2,0-.4,0-.2,0-.5,0-.7-.1-.5,0-1-.2-1.5-.2h-.3c-.2,0-.3,0-.5,0-.1,0-.2,0-.3.1-.1,0-.2.2-.3.3-.1.2-.1.4-.2.6,0,.2,0,.3.1.5,0,.1.1.3.2.4.8.7,1.7,1.4,2.7,1.8.6.2,1.2.2,1.9,0,.3,0,.6-.2.9-.3.2,0,.4-.2.6-.3.5-.3,1-.7,1.4-1.1l.2-.2v-.3c.1,0,.2-.3.2-.3,0-.2,0-.3-.1-.5,0-.1,0-.2-.1-.3,0,0-.1-.2-.2-.2,0,0-.2-.1-.3-.1-.1,0-.3-.1-.5-.1-.4,0-.8,0-1.2,0-.3,0-.6.1-.9.2-.4.1-.7.3-1,.5s-.6.5-.9.7l.2-.2c-.1.1-.3.2-.4.3h.3c-.1,0-.2,0-.3,0h.3c-.1,0-.2,0-.3,0h.3c-.4,0-.9-.2-1.3-.3-.2,0-.4-.1-.6-.2-.1,0-.2,0-.3-.1-.2,0-.4,0-.5,0h.2c-.1,0-.3,0-.4,0-.2,0-.5-.1-.7,0h.2s0,0-.1,0c-.2,0-.4,0-.5.2-.1.1-.2.3-.1.5h0Z"/>
      <path class="st3" d="M303.8,186.8c0-.2.1-.4.2-.6s.1-.4.2-.7,0-.4.1-.7c0-.3,0-.5.1-.8v.2c0-.4.1-.8.1-1.2,0-.4,0-.7,0-1.1,0-.7,0-1.5,0-2.2,0-.2,0-.4,0-.6,0-.2,0-.3,0-.5,0,0,0,0,0-.1,0-.1,0-.2-.1-.3s-.2-.2-.3-.3c-.1,0-.3-.1-.5,0-.1,0-.2,0-.4.1-.1,0-.2.2-.3.4s0,.3,0,.4,0,.3,0,.4v-.2c.1,1,.2,2,.2,3,0,.5,0,1,0,1.5s0,1,0,1.5c0,.3,0,.6,0,.8s0,.6,0,.9c0,.2.2.4.4.4.2,0,.4,0,.4-.3h0Z"/>
      <path class="st3" d="M290.7,177.8c-.9.2-1.7.5-2.6.8s-1.8.7-2.6,1.1c-1.6.8-3.3,1.6-4.8,2.6-.4.3-.8.6-1.2.9-.1,0-.2.1-.3.2-.1.1-.2.2-.4.3,0,0-.2.2-.2.3-.1.1-.2.2-.2.4,0,.2.1.5.4.5s.4-.1.6-.2c.2-.1.5-.2.7-.4.4-.2.8-.5,1.2-.7.8-.4,1.5-.9,2.3-1.3s1.6-.9,2.4-1.2c.4-.2.8-.4,1.2-.6.2,0,.4-.2.6-.3,0,0,.2,0,.2-.1,0,0,.1,0,.1,0-.2,0,0,0,0,0,.5-.2,1-.4,1.4-.6,0,0,.2,0,.3-.1-.2,0,0,0,0,0,.1,0,.2-.1.4-.1.2-.1.5-.2.7-.3.3-.1.5-.4.4-.7-.1-.3-.4-.5-.7-.4h0Z"/>
      <path class="st3" d="M291.8,180.7c-1.4.9-2.6,1.8-3.9,2.8s-2.3,2.1-3.4,3.3c-.3.4-.6.7-.9,1.1-.1.2-.2.4-.4.5s-.1.2-.2.3c0,0,0,0,0,.1,0,.1,0,.2,0,.3,0,.3.2.4.5.4.1,0,.3-.1.4-.2,0,0,.1-.1.2-.2.1-.1.3-.3.4-.4s.3-.3.4-.4.3-.3.4-.4c.5-.6,1-1.1,1.6-1.7,1.1-1.1,2.3-2.1,3.5-3.1,0,0,.2-.1.2-.2,0,0,0,0,.1,0,0,0,0,0,0,0,0,0,0,0,0,0,.2-.1.3-.3.5-.4.4-.3.7-.5,1.1-.8.2-.2.4-.5.2-.8-.2-.2-.5-.4-.8-.2h0Z"/>
      <path class="st3" d="M293.9,183.2c-1.3,1.2-2.5,2.5-3.8,3.8-.6.6-1.2,1.3-1.8,2s-1.2,1.4-1.7,2.2c-.3.4-.5.9-.8,1.3-.1.2-.3.5-.4.8,0,.1,0,.2-.1.4,0,.2,0,.4,0,.5,0,.2.3.4.5.3.1,0,.3-.1.4-.2,0,0,.1-.2.2-.2.2-.2.3-.4.5-.6.2-.4.5-.7.8-1.1.5-.7,1-1.4,1.5-2.1,0,0,.1-.2.2-.2,0-.1,0,.1,0,0,0,0,0-.1.1-.1.1-.2.3-.4.4-.5.3-.3.6-.7.9-1,.6-.7,1.2-1.3,1.8-1.9.7-.7,1.4-1.4,2.1-2.1.2-.2.2-.6,0-.8s-.6-.2-.8,0h0Z"/>
      <path class="st3" d="M313.5,176.3c.2,0,.4,0,.7,0,0,0,.2,0,0,0,0,0,.1,0,.2,0,.2,0,.3,0,.5,0,.1,0,.2,0,.3,0-.1,0,0,0,0,0,0,0,.1,0,.2,0,.2,0,.5,0,.7.1.9.1,1.8.3,2.7.6s1.7.5,2.6.8c.2,0,.4.2.6.2.1,0,.2,0,.3.1-.2,0,0,0,0,0,0,0,.1,0,.2,0,.4.2.8.4,1.2.6.5.2.9.5,1.4.7.2.1.4.3.7.4.3.1.5.3.8.3.3,0,.5,0,.7-.2.1-.2.2-.5,0-.7-.3-.4-.8-.8-1.2-1-.4-.2-.8-.4-1.2-.6-.9-.4-1.8-.8-2.7-1.2-1.8-.6-3.6-1.1-5.5-1.3-1-.1-2.1-.1-3.1,0-.2,0-.5.2-.5.5s.2.4.5.5h0Z"/>
      <path class="st3" d="M315.1,178.9c.3,0,.7.2,1,.3s.7.2,1,.4.7.2,1,.4c.1,0,.3.1.4.2,0,0,.2,0,0,0,0,0,0,0,.1,0,0,0,.2,0,.3.1,1.3.6,2.5,1.2,3.6,2,.3.2.6.4,1,.7s.6.5,1,.7h-.2c.1,0,.2,0,.3.1s.2.1.4.1c.3,0,.6,0,.8-.3,0-.1.1-.2.1-.4,0-.2,0-.3,0-.5-.2-.4-.5-.6-.9-.9-.3-.3-.7-.5-1-.8-.6-.4-1.2-.8-1.9-1.1-1.4-.7-2.8-1.3-4.3-1.7-.8-.2-1.7-.4-2.5-.5-.2,0-.5.2-.5.4,0,.2.1.5.4.5h0Z"/>
      <path class="st3" d="M313.6,182.1c.4.2.8.4,1.2.7s.8.5,1.2.7c.8.5,1.5,1,2.3,1.6.4.3.8.6,1.2.9h-.2c.6.4,1.2.9,1.8,1.4.3.3.6.5.9.8.1.1.3.2.5.4.2.1.3.3.5.4.2,0,.5,0,.7,0s.3-.3.4-.5c.1-.3,0-.6-.2-.9-.5-.6-1-1.1-1.6-1.5-.6-.5-1.3-1-2-1.5-.6-.4-1.2-.9-1.9-1.2s-1.3-.7-2-1.1c-.1,0-.2-.1-.4-.2,0,0-.1,0-.2,0,0,0,0,0,0,0,0,0,.1,0,0,0-.2,0-.4-.2-.6-.3-.4-.2-.9-.4-1.3-.5-.1,0-.3,0-.5,0s-.2.2-.2.3c-.1.2,0,.6.2.7h0Z"/>
      <path class="st3" d="M318.3,158.1c-.2-.2-.5-.4-.7-.6s-.4-.4-.7-.6c-.5-.4-1-.8-1.5-1.2-1-.7-2-1.3-3.1-1.9-2.2-1.1-4.6-2-7-2.6-.7-.2-1.4-.3-2-.4-.2,0-.4,0-.6,0s-.4,0-.6,0c-.1,0,0,0,0,0h-.4c-.2,0-.4,0-.6,0-.4.1-.4.6-.1.8.3.2.6.2.9.3.1,0,0,0,0,0,0,0,.1,0,.1,0,0,0,.2,0,.3,0,.2,0,.3,0,.5.1.6.1,1.2.3,1.8.4,1.2.3,2.4.6,3.5,1,.6.2,1.1.4,1.7.6.1,0,.3.1.4.2,0,0,0,0,.1,0s.1,0,0,0,0,0,0,0c0,0,.1,0,.1,0,.3.1.5.2.8.4,1.1.5,2.2,1.1,3.2,1.7.6.3,1.2.7,1.7,1s1.2.7,1.8,1.1c.3.2.7-.3.4-.6h0Z"/>
      <path class="st3" d="M201.7,167.9c.2-.2.4-.4.6-.6,0,0,.2-.1.3-.2.1,0,.3-.1.4-.2.1,0,.3-.1.4-.2,0,0,.2,0,.3-.1.3,0,.5-.2.8-.2s.5-.1.8-.2c0,0,0,0,.1,0,0,0,.1,0,0,0,0,0,.1,0,.2,0,.1,0,.3,0,.4,0,.7,0,1.5,0,2.2,0,2.9.1,5.8.8,8.7,1.5,2.4.6,4.8,1.2,7.1,1.9,1.2.4,2.3.8,3.5,1.2l.8.3c.1,0,.3.1.4.2-.1,0,0,0,0,0,0,0,0,0,.1,0,0,0,.1,0,.2.1.6.2,1.1.5,1.6.8,1.1.5,2.1,1.1,3.1,1.8s1,.7,1.5,1c0,0,0,0,.1,0,0,0,0,0,0,0,0,0,.1,0,.2.1.1.1.3.2.4.3.2.2.5.4.7.6.1.1.2.2.3.3.1.1.3.2.4.3.3.2.7-.2.5-.5,0-.1-.2-.3-.3-.4s-.2-.2-.3-.4c-.2-.2-.4-.4-.6-.6-.5-.4-1-.8-1.5-1.2-1-.7-2-1.4-3.1-1.9-2.2-1.2-4.6-2.1-6.9-2.8s-4.8-1.3-7.3-1.9c-2.9-.7-5.9-1.4-8.8-1.6-1.4,0-2.8,0-4.2.2-.6.1-1.1.3-1.7.5s-.9.6-1.4,1c-.2.2-.4.4-.5.7,0,.1,0,.3,0,.4.1,0,.3,0,.4,0h0Z"/>
      <path class="st3" d="M235.3,178.6c-.4-.7-1-1.3-1.7-1.7-.6-.4-1.3-.8-2-1.1-.4-.2-.7-.4-1.1-.7h.1c-.3-.1-.6-.4-.8-.7h0c0,.1,0,0,0,0l-.5.9c1.2-.1,2.4-.2,3.6,0,.3,0,.7,0,1,.1h-.2c.4,0,.7,0,1.1.1.4,0,.8.1,1.2.2.1,0,.4,0,.5-.2s.2-.2.2-.4c0-.3-.1-.6-.5-.7-.5-.1-1-.2-1.4-.3-.4,0-.9,0-1.3-.1-.9,0-1.8,0-2.6,0-.5,0-1,0-1.5.1-.1,0-.2,0-.3,0s-.1.1-.2.2c0,.2-.1.4,0,.6.2.3.5.6.8.9s.6.5,1,.7c.6.4,1.3.7,1.9,1.1.4.2.7.4,1,.6h-.1c.2,0,.4.2.5.4,0,0,0,0,.1.1,0,0,0,0,0,0,0,0,0,0,0,0,0,0,0,0,0,0,0,0,0,0,0,0,0,0,0,0,0,0,0,0,0,.1.1.2.1.2.4.3.7.2s.3-.4.2-.7h0Z"/>
      <path class="st3" d="M234.8,178.5c-.3,0-.6-.1-.9-.2h-.8c-.6-.1-1.1-.2-1.7-.2-1.1,0-2.2,0-3.3,0-.6,0-1.3,0-1.9.1-.3,0-.5.2-.5.5,0,.2.1.5.4.6.3,0,.7.2,1,.3.2,0,.3.1.5.2,0,0,.1,0,.2,0,0,0,0,0,.1,0,0,0,0,0,0,0,.1,0-.1,0,0,0,.6.3,1.2.6,1.8.9.3.2.6.4.9.6,0,0,.1.1.2.1,0,0,0,0,0,0,0,0,0,0,0,0,0,0,0,0,.1,0,.1.1.3.2.4.3.5.4,1,.9,1.4,1.4.1.1.2.3.4.4,0,0,.1.1.2.2,0,0,0,0,0,.1-.1-.1,0,0,0,0,.1.2.3.4.4.5.1.1.3.3.4.4.3.3.8,0,.7-.4,0-.2-.1-.3-.2-.5,0-.2-.2-.4-.3-.5-.2-.3-.4-.6-.7-.9-.4-.5-.9-1-1.4-1.5-1.1-.9-2.3-1.7-3.6-2.3-.8-.3-1.5-.6-2.3-.8v1.1c2.1,0,4.3,0,6.5.1.3,0,.6,0,.9,0s.6,0,1,0,.4-.2.5-.4-.1-.5-.4-.5h0Z"/>
      <path class="st3" d="M233.2,185.9c-.1,0-.3,0-.4-.1h.1c-.2,0-.5-.2-.7-.4h.1c-.2,0-.4-.3-.6-.5h0c-.2-.1-.3-.3-.4-.6h0s0,0-.1-.1l-.5.7c.2,0,.4,0,.6,0h-.1c.7,0,1.4.2,2.1.5,0,0,.2,0,.3.1,0,0,0,0,.1,0,0,0,.2,0,.3,0h.1s.1,0,.1,0h.1c0-.1,0-.2.1-.2,0,0,0,0,0-.1,0,0,0-.1,0-.1,0,0,0,0,0-.1,0,0,0-.1-.1-.2,0,0,0,0,0,0h0c-.1-.1-.1-.1-.3-.2,0,0-.1,0-.1,0-.1,0-.2,0-.3-.1-.2,0-.4-.1-.6-.2-.5-.1-.9-.2-1.4-.3-.2,0-.5,0-.7,0-.1,0-.2,0-.3,0,0,0-.1,0-.1.1,0,0,0,.1-.1.2,0,.1,0,.2,0,.3,0,.2.2.5.3.7s.3.4.4.6.4.3.6.5c.2.1.4.2.5.3.2.1.5.2.8.3.1,0,.3,0,.4,0,.1,0,.2-.2.2-.3,0-.1,0-.3,0-.4s-.2-.2-.3-.2h0Z"/>
      <path class="st3" d="M260.1,201.2c.3.3.6.7.9,1.1,0,0,0,0,0,0,0,0,0,0,0,0,0,0,0,0,0,0,0,0,0,.1.1.1,0,.1.1.2.2.3.1.2.3.4.4.6.1.2.3.4.4.7h0c0,0,.1.3.2.5h0c0,.3,0,.7.2,1.1,0,0,0,.2,0,.3,0,.1,0,.2.1.4,0,0,.1.1.2.2,0,.1.2.2.3.3.1,0,.2,0,.3-.1.1-.1,0-.3,0-.5,0,0,0-.2,0-.3,0,0,0-.1,0-.2,0-.3-.1-.5-.2-.8h0c0-.2,0-.6-.1-1s-.3-.7-.5-.9c-.4-.6-.8-1.1-1.3-1.6-.2-.3-.5-.5-.8-.8-.1-.1-.4-.1-.5,0s-.1.4,0,.5h0Z"/>
      <path class="st3" d="M323.7,200.4s0,0,.1,0h0c0,0,.1,0,.2.1h0c0,0,.1,0,.2.2h0c0-.1,0,0,0,0,0,0,0,.2.1.3h0c.1.2.2.5.3.9,0,.4.2.9.3,1.3,0,.1,0,.2.1.4,0,0,0,.1,0,.2,0,0,0,0,0,.1,0,0,0,.2.1.2h0c0,0,0,0,0,0,0,0,0,0,0,0,0,0,.1.1.1.1,0,0,.2,0,.3,0,0,0,.2,0,.2-.2,0,0,0-.2,0-.3h0c0-.1,0,0,0,0,0-.1,0-.3,0-.4,0,0,0-.2,0-.2,0-.2,0-.3,0-.5,0-.3-.1-.7-.2-1,0-.2-.1-.5-.2-.8,0-.1-.1-.3-.2-.4s-.2-.3-.3-.4c-.2-.2-.5-.4-.8-.5-.2,0-.4,0-.4.2s0,.4.1.4h0Z"/>
      <path class="st3" d="M278.5,257.8c0,0,0,.2,0,.3,0,0,0,0,0,0,0,0,0,0,0,0s0,0,0,0c0,0,0,0,0,.1,0,.2,0,.4,0,.6,0,.4,0,.7,0,1.1,0,0,0,.1,0,0,0,0,0,0,0,0,0,0,0,0,0,.1,0,.1,0,.2,0,.3,0,.2,0,.4-.1.5,0,.4-.2.7-.3,1.1-.1.4-.3.8-.5,1.2h0c-.2.3-.4.7-.6,1.2-.1.2-.2.4-.3.6,0,.1-.1.3-.2.4,0,.2-.1.4,0,.6,0,.2.4.4.6.3.2,0,.3-.2.5-.4,0,0,0,0,.1-.1,0-.1.1-.2.2-.3.1-.2.3-.5.4-.8.3-.5.5-1.1.7-1.7.2-.5.4-1.1.5-1.7.1-.6.1-1.2.1-1.9,0-.7-.1-1.4-.3-2,0-.2-.3-.4-.5-.3-.2,0-.4.3-.3.5h0Z"/>
      <path class="st3" d="M271.6,258c0,.5,0,1.1,0,1.6s0,1.1-.2,1.6h0c0,.5-.2,1.2-.4,1.9,0,.3-.2.7-.3,1,0,.2-.1.3-.1.5,0,0,0,.2,0,.3,0,.1,0,.2,0,.4,0,.2.1.4.3.4.2,0,.4,0,.5-.1.1-.1.2-.2.2-.4,0-.1.1-.3.2-.4,0-.2.1-.5.2-.7.1-.5.2-1,.3-1.4.2-1,.3-2,.2-3,0-.6,0-1.2-.2-1.8,0,0-.1-.2-.2-.2,0,0-.2,0-.2,0-.2,0-.3.2-.3.4h0Z"/>
      <path class="st3" d="M341.2,256.9c0,0,0,0,0,0,0,0,0,0,0,0,0,0,0,.1,0,.2,0,.1,0,.2,0,.4,0,0,0,.1,0,.2,0,.1,0,0,0,0s0,.1,0,.2c0,.1,0,0,0,0h0c0,.1,0,.2,0,.3,0,.5,0,1,0,1.5,0,.5,0,1-.1,1.4,0,0,0,.2,0,0,0,0,0,.2,0,.3,0,0,0,.1,0,.2,0,0,0,0,0,0,0,0,0,0,0,.1,0,.2,0,.5-.1.7,0,.1,0,.2-.1.4,0,0,0,.1,0,.2s0,0,0,0c0,0,0,0,0,0,0,0,0,0,0,0,0,0,0,.2-.1.3,0,0,0,0,0,0,0,0,0,0,0,0,0,0,0,0,0,0,0,0,0,.2-.1.3,0,.1,0,.2,0,.3,0,.2.2.2.4.2.2,0,.3,0,.4-.2.1-.1.2-.2.3-.4s.1-.3.2-.4c0-.1,0-.2.1-.4.2-.5.3-1,.3-1.5s0-1,0-1.5c0-.5,0-1,0-1.6,0-.3,0-.6-.2-.9s-.2-.6-.4-.8c0-.1-.3-.2-.4-.1-.1.1-.2.3-.1.4h0Z"/>
      <path class="st3" d="M334.5,258c0,.2.1.4.1.7,0,.1,0,.2,0,.3,0,0,0,.1,0,.2,0,.1,0,0,0,0h0c0,.3,0,.6,0,.8s0,.5,0,.7c0,.4,0,.9,0,1.3s0,.9,0,1.4c0,.2,0,.5,0,.8v.4c0,.1,0,.3.1.4,0,.1.2.2.3,0,0,0,.2-.2.2-.3s0-.2.1-.4c0-.2.1-.5.1-.8,0-.5.1-.9.1-1.4s0-.9,0-1.4c0-.2,0-.5,0-.7,0-.2,0-.5-.2-.8-.1-.5-.2-1-.4-1.5,0-.2-.2-.3-.4-.2s-.3.2-.2.4h0Z"/>
      <path class="st3" d="M85.9,200.5c0,0,0,0,0,0,0,0,0,0,0,0s0,0,0,0c0,0,0-.1,0,0,0,0,0,0,0,0,0,0,0-.1,0-.2,0-.1-.2-.3-.2-.4-.1-.3-.3-.6-.5-.9-.4-.6-.9-1.2-1.5-1.7-.6-.6-1.2-1.1-1.8-1.6-.6-.5-1.3-1.1-1.9-1.6-.4-.3-.7-.6-1.1-.8-.2-.1-.4-.3-.6-.4-.2-.1-.4-.2-.7-.3-.2,0-.3.2-.2.3.1.2.2.3.4.5s.3.3.4.4c.3.3.6.5.9.8.6.5,1.2,1.1,1.8,1.6s1.2,1.1,1.8,1.6c.3.2.5.5.8.8.1.1.2.3.4.4,0,0,0,0,0,.1,0,0,0,0,0,0,0,0,0,0,0,0,0,0,.1.1.2.2.2.3.4.7.6,1,0,.2.2.4.3.5s.4.3.6.3c0,0,.2,0,.3,0,0,0,0-.2,0-.3h0Z"/>
    </g>
  </g>
</svg>